rounded.ufo
<glyph name="exclam" format="1">
  <advance width="239"/>
  <unicode hex="0021"/>
  <outline>
    <contour>
      <point x="121" y="-2" type="curve" smooth="yes"/>
      <point x="164" y="-2"/>
      <point x="189" y="22"/>
      <point x="189" y="63" type="curve" smooth="yes"/>
      <point x="189" y="104"/>
      <point x="164" y="128"/>
      <point x="121" y="128" type="curve" smooth="yes"/>
      <point x="79" y="128"/>
      <point x="54" y="104"/>
      <point x="54" y="63" type="curve" smooth="yes"/>
      <point x="54" y="22"/>
      <point x="79" y="-2"/>
    </contour>
    <contour>
      <point x="84" y="212" type="line"/>
      <point x="155" y="212" type="line"/>
      <point x="155" y="224" type="line"/>
      <point x="179" y="730" type="line"/>
      <point x="179" y="740" type="line"/>
      <point x="60" y="740" type="line"/>
      <point x="60" y="730" type="line"/>
      <point x="84" y="224" type="line"/>
    </contour>
  </outline>
</glyph>
<glyph name="numbersign" format="1">
  <advance width="495"/>
  <unicode hex="0023"/>
  <outline>
    <contour>
      <point x="88" y="0" type="line"/>
      <point x="169" y="0" type="line"/>
      <point x="229" y="740" type="line"/>
      <point x="148" y="740" type="line"/>
    </contour>
    <contour>
      <point x="39" y="220" type="line"/>
      <point x="456" y="220" type="line"/>
      <point x="456" y="295" type="line"/>
      <point x="39" y="295" type="line"/>
    </contour>
    <contour>
      <point x="39" y="447" type="line"/>
      <point x="457" y="447" type="line"/>
      <point x="457" y="521" type="line"/>
      <point x="39" y="521" type="line"/>
    </contour>
    <contour>
      <point x="260" y="0" type="line"/>
      <point x="341" y="0" type="line"/>
      <point x="401" y="740" type="line"/>
      <point x="321" y="740" type="line"/>
    </contour>
  </outline>
</glyph>
<glyph name="dollar" format="1">
  <advance width="493"/>
  <unicode hex="0024"/>
  <outline>
    <contour>
      <point x="216" y="-140" type="line"/>
      <point x="310" y="-140" type="line"/>
      <point x="310" y="45" type="line"/>
      <point x="216" y="44" type="line"/>
    </contour>
    <contour>
      <point x="212" y="705" type="line"/>
      <point x="306" y="705" type="line"/>
      <point x="306" y="880" type="line"/>
      <point x="212" y="880" type="line"/>
    </contour>
    <component base="S" xOffset="2"/>
  </outline>
</glyph>
<glyph name="ampersand" format="1">
  <advance width="624"/>
  <unicode hex="0026"/>
  <outline>
    <contour>
      <point x="571" y="69" type="line"/>
      <point x="576" y="69" type="line"/>
      <point x="618" y="161" type="line"/>
      <point x="618" y="166" type="line"/>
      <point x="378" y="327" type="line" smooth="yes"/>
      <point x="258" y="406"/>
      <point x="209" y="469"/>
      <point x="209" y="547" type="curve" smooth="yes"/>
      <point x="209" y="622"/>
      <point x="245" y="659"/>
      <point x="317" y="659" type="curve" smooth="yes"/>
      <point x="356" y="659"/>
      <point x="404" y="648"/>
      <point x="451" y="627" type="curve"/>
      <point x="456" y="627" type="line"/>
      <point x="470" y="713" type="line"/>
      <point x="470" y="718" type="line"/>
      <point x="410" y="742"/>
      <point x="360" y="752"/>
      <point x="309" y="752" type="curve" smooth="yes"/>
      <point x="174" y="752"/>
      <point x="100" y="685"/>
      <point x="100" y="562" type="curve" smooth="yes"/>
      <point x="100" y="446"/>
      <point x="159" y="366"/>
      <point x="336" y="238" type="curve" smooth="yes"/>
    </contour>
    <contour>
      <point x="278" y="-11" type="curve" smooth="yes"/>
      <point x="457" y="-11"/>
      <point x="556" y="114"/>
      <point x="556" y="343" type="curve" smooth="yes"/>
      <point x="556" y="417" type="line"/>
      <point x="457" y="411" type="line"/>
      <point x="457" y="342" type="line" smooth="yes"/>
      <point x="457" y="165"/>
      <point x="402" y="80"/>
      <point x="285" y="80" type="curve" smooth="yes"/>
      <point x="202" y="80"/>
      <point x="149" y="132"/>
      <point x="149" y="212" type="curve" smooth="yes"/>
      <point x="149" y="275"/>
      <point x="174" y="317"/>
      <point x="225" y="339" type="curve"/>
      <point x="185" y="411" type="line"/>
      <point x="173" y="402" type="line"/>
      <point x="87" y="375"/>
      <point x="38" y="304"/>
      <point x="38" y="206" type="curve" smooth="yes"/>
      <point x="38" y="72"/>
      <point x="130" y="-11"/>
    </contour>
  </outline>
</glyph>
<glyph name="asterisk" format="1">
  <advance width="481"/>
  <unicode hex="002A"/>
  <outline>
    <contour>
      <point x="235" y="624" type="line"/>
      <point x="247" y="624" type="line"/>
      <point x="253" y="630" type="line"/>
      <point x="279" y="760" type="line"/>
      <point x="279" y="838" type="line"/>
      <point x="203" y="838" type="line"/>
      <point x="203" y="760" type="line"/>
      <point x="228" y="630" type="line"/>
    </contour>
    <contour>
      <point x="238" y="619" type="line"/>
      <point x="245" y="642" type="line"/>
      <point x="130" y="706" type="line"/>
      <point x="55" y="730" type="line"/>
      <point x="32" y="658" type="line"/>
      <point x="106" y="634" type="line"/>
    </contour>
    <contour>
      <point x="149" y="440" type="line"/>
      <point x="195" y="503" type="line"/>
      <point x="250" y="624" type="line"/>
      <point x="230" y="638" type="line"/>
      <point x="133" y="548" type="line"/>
      <point x="87" y="484" type="line"/>
    </contour>
    <contour>
      <point x="332" y="440" type="line"/>
      <point x="394" y="484" type="line"/>
      <point x="348" y="548" type="line"/>
      <point x="251" y="638" type="line"/>
      <point x="231" y="624" type="line"/>
      <point x="286" y="503" type="line"/>
    </contour>
    <contour>
      <point x="449" y="658" type="line"/>
      <point x="426" y="730" type="line"/>
      <point x="351" y="706" type="line"/>
      <point x="236" y="642" type="line"/>
      <point x="243" y="619" type="line"/>
      <point x="375" y="634" type="line"/>
    </contour>
  </outline>
</glyph>
<glyph name="period" format="1">
  <advance width="219"/>
  <unicode hex="002E"/>
  <outline>
    <contour>
      <point x="109" y="-5" type="curve" smooth="yes"/>
      <point x="155" y="-5"/>
      <point x="177" y="16"/>
      <point x="177" y="61" type="curve" smooth="yes"/>
      <point x="177" y="105"/>
      <point x="155" y="126"/>
      <point x="109" y="126" type="curve" smooth="yes"/>
      <point x="63" y="126"/>
      <point x="43" y="106"/>
      <point x="43" y="61" type="curve" smooth="yes"/>
      <point x="43" y="16"/>
      <point x="64" y="-5"/>
    </contour>
  </outline>
</glyph>
<glyph name="zero" format="1">
  <advance width="568"/>
  <unicode hex="0030"/>
  <outline>
    <contour>
      <point x="284" y="-10" type="curve" smooth="yes"/>
      <point x="444" y="-10"/>
      <point x="528" y="121"/>
      <point x="528" y="369" type="curve" smooth="yes"/>
      <point x="528" y="618"/>
      <point x="444" y="750"/>
      <point x="284" y="750" type="curve" smooth="yes"/>
      <point x="125" y="750"/>
      <point x="40" y="618"/>
      <point x="40" y="369" type="curve" smooth="yes"/>
      <point x="40" y="121"/>
      <point x="125" y="-10"/>
    </contour>
    <contour>
      <point x="284" y="87" type="curve" smooth="yes"/>
      <point x="194" y="87"/>
      <point x="155" y="174"/>
      <point x="155" y="369" type="curve" smooth="yes"/>
      <point x="155" y="564"/>
      <point x="196" y="654"/>
      <point x="284" y="654" type="curve" smooth="yes"/>
      <point x="373" y="654"/>
      <point x="414" y="565"/>
      <point x="414" y="369" type="curve" smooth="yes"/>
      <point x="414" y="174"/>
      <point x="374" y="87"/>
    </contour>
  </outline>
</glyph>
<glyph name="one" format="1">
  <advance width="361"/>
  <unicode hex="0031"/>
  <outline>
    <contour>
      <point x="173" y="0" type="line"/>
      <point x="287" y="0" type="line"/>
      <point x="287" y="740" type="line"/>
      <point x="204" y="740" type="line"/>
      <point x="14" y="609" type="line"/>
      <point x="11" y="594" type="line"/>
      <point x="34" y="539" type="line"/>
      <point x="48" y="539" type="line"/>
      <point x="169" y="610" type="line"/>
      <point x="173" y="610" type="line"/>
    </contour>
  </outline>
</glyph>
<glyph name="less" format="1">
  <advance width="512"/>
  <unicode hex="003C"/>
  <outline>
    <contour>
      <point x="34" y="341" type="line"/>
      <point x="96" y="341" type="line"/>
      <point x="458" y="499" type="line"/>
      <point x="458" y="591" type="line"/>
      <point x="34" y="406" type="line"/>
    </contour>
    <contour>
      <point x="457" y="139" type="line"/>
      <point x="457" y="232" type="line"/>
      <point x="96" y="389" type="line"/>
      <point x="34" y="389" type="line"/>
      <point x="34" y="325" type="line"/>
    </contour>
  </outline>
</glyph>
<glyph name="A" format="1">
  <advance width="582"/>
  <unicode hex="0041"/>
  <outline>
    <contour>
      <point x="579" y="4" type="move" name="ogonek"/>
    </contour>
    <contour>
      <point x="292" y="783" type="move" name="topUC"/>
    </contour>
    <contour>
      <point x="3" y="0" type="line"/>
      <point x="111" y="0" type="line"/>
      <point x="168" y="203" type="line"/>
      <point x="413" y="203" type="line"/>
      <point x="471" y="0" type="line"/>
      <point x="579" y="0" type="line"/>
      <point x="579" y="7" type="line"/>
      <point x="376" y="740" type="line"/>
      <point x="206" y="740" type="line"/>
      <point x="3" y="7" type="line"/>
    </contour>
    <contour>
      <point x="192" y="301" type="line"/>
      <point x="260" y="538" type="line"/>
      <point x="286" y="648" type="line"/>
      <point x="296" y="648" type="line"/>
      <point x="322" y="538" type="line"/>
      <point x="389" y="301" type="line"/>
    </contour>
  </outline>
</glyph>
<glyph name="F" format="1">
  <advance width="492"/>
  <unicode hex="0046"/>
  <outline>
    <contour>
      <point x="66" y="0" type="line"/>
      <point x="180" y="0" type="line"/>
      <point x="180" y="642" type="line"/>
      <point x="465" y="642" type="line"/>
      <point x="465" y="740" type="line"/>
      <point x="66" y="740" type="line"/>
    </contour>
    <contour>
      <point x="150" y="314" type="line"/>
      <point x="442" y="314" type="line"/>
      <point x="442" y="412" type="line"/>
      <point x="150" y="412" type="line"/>
    </contour>
  </outline>
</glyph>
<glyph name="I" format="1">
  <advance width="246"/>
  <unicode hex="0049"/>
  <outline>
    <contour>
      <point x="180" y="0" type="move" name="ogonek"/>
    </contour>
    <contour>
      <point x="125" y="783" type="move" name="topUC"/>
    </contour>
    <contour>
      <point x="125" y="0" type="move" name="bottom"/>
    </contour>
    <contour>
      <point x="66" y="0" type="line"/>
      <point x="180" y="0" type="line"/>
      <point x="180" y="740" type="line"/>
      <point x="66" y="740" type="line"/>
    </contour>
  </outline>
</glyph>
<glyph name="K" format="1">
  <advance width="588"/>
  <unicode hex="004B"/>
  <outline>
    <contour>
      <point x="298" y="0" type="move" name="bottom"/>
    </contour>
    <contour>
      <point x="66" y="0" type="line"/>
      <point x="180" y="0" type="line"/>
      <point x="180" y="328" type="line"/>
      <point x="259" y="328" type="line"/>
      <point x="462" y="0" type="line"/>
      <point x="591" y="0" type="line"/>
      <point x="377" y="349" type="line"/>
      <point x="326" y="375" type="line"/>
      <point x="326" y="380" type="line"/>
      <point x="375" y="407" type="line"/>
      <point x="570" y="740" type="line"/>
      <point x="442" y="740" type="line"/>
      <point x="259" y="426" type="line"/>
      <point x="180" y="426" type="line"/>
      <point x="180" y="740" type="line"/>
      <point x="66" y="740" type="line"/>
    </contour>
  </outline>
</glyph>
<glyph name="P" format="1">
  <advance width="554"/>
  <unicode hex="0050"/>
  <outline>
    <contour>
      <point x="235" y="236" type="curve" smooth="yes"/>
      <point x="441" y="236"/>
      <point x="530" y="314"/>
      <point x="530" y="493" type="curve" smooth="yes"/>
      <point x="530" y="673"/>
      <point x="441" y="751"/>
      <point x="236" y="751" type="curve" smooth="yes"/>
      <point x="181" y="751"/>
      <point x="124" y="746"/>
      <point x="66" y="735" type="curve"/>
      <point x="66" y="247" type="line"/>
      <point x="119" y="240"/>
      <point x="178" y="236"/>
    </contour>
    <contour>
      <point x="251" y="330" type="curve" smooth="yes"/>
      <point x="230" y="330"/>
      <point x="202" y="332"/>
      <point x="180" y="335" type="curve"/>
      <point x="180" y="648" type="line"/>
      <point x="203" y="652"/>
      <point x="232" y="655"/>
      <point x="254" y="655" type="curve" smooth="yes"/>
      <point x="369" y="655"/>
      <point x="413" y="608"/>
      <point x="413" y="493" type="curve" smooth="yes"/>
      <point x="413" y="376"/>
      <point x="367" y="330"/>
    </contour>
    <contour>
      <point x="66" y="0" type="line"/>
      <point x="180" y="0" type="line"/>
      <point x="180" y="687" type="line"/>
      <point x="66" y="687" type="line"/>
    </contour>
  </outline>
</glyph>
<glyph name="bracketleft" format="1">
  <advance width="312"/>
  <unicode hex="005B"/>
  <outline>
    <contour>
      <point x="68" y="-160" type="line"/>
      <point x="289" y="-160" type="line"/>
      <point x="289" y="-83" type="line"/>
      <point x="157" y="-83" type="line"/>
      <point x="157" y="791" type="line"/>
      <point x="289" y="791" type="line"/>
      <point x="289" y="868" type="line"/>
      <point x="68" y="868" type="line"/>
    </contour>
  </outline>
</glyph>
<glyph name="underscore" format="1">
  <advance width="510"/>
  <unicode hex="005F"/>
  <outline>
    <contour>
      <point x="38" y="-145" type="line"/>
      <point x="473" y="-145" type="line"/>
      <point x="473" y="-60" type="line"/>
      <point x="38" y="-60" type="line"/>
    </contour>
  </outline>
</glyph>
<glyph name="grave" format="1">
  <advance width="246"/>
  <unicode hex="0060"/>
  <outline>
    <contour>
      <point x="165" y="600" type="move" name="_top"/>
    </contour>
    <contour>
      <point x="126" y="610" type="line"/>
      <point x="21" y="803" type="line"/>
      <point x="136" y="803" type="line"/>
      <point x="205" y="620" type="line"/>
    </contour>
  </outline>
</glyph>
<glyph name="f" format="1">
  <advance width="314"/>
  <unicode hex="0066"/>
  <outline>
    <contour>
      <point x="88" y="0" type="line"/>
      <point x="200" y="0" type="line"/>
      <point x="200" y="446" type="line"/>
      <point x="304" y="446" type="line"/>
      <point x="304" y="540" type="line"/>
      <point x="200" y="540" type="line"/>
      <point x="200" y="582" type="line" smooth="yes"/>
      <point x="200" y="689"/>
      <point x="225" y="717"/>
      <point x="327" y="726" type="curve"/>
      <point x="321" y="813" type="line"/>
      <point x="144" y="803"/>
      <point x="88" y="747"/>
      <point x="88" y="574" type="curve" smooth="yes"/>
      <point x="88" y="540" type="line"/>
      <point x="14" y="540" type="line"/>
      <point x="14" y="446" type="line"/>
      <point x="88" y="446" type="line"/>
    </contour>
  </outline>
</glyph>
<glyph name="bar" format="1">
  <advance width="241"/>
  <unicode hex="007C"/>
  <outline>
    <contour>
      <point x="68" y="808" type="line"/>
      <point x="68" y="-220" type="line"/>
      <point x="173" y="-220" type="line"/>
      <point x="173" y="808" type="line"/>
    </contour>
  </outline>
</glyph>
<glyph name="currency" format="1">
  <advance width="555"/>
  <unicode hex="00A4"/>
  <outline>
    <contour>
      <point x="126" y="370" type="curve" smooth="yes"/>
      <point x="126" y="260"/>
      <point x="187" y="187"/>
      <point x="277" y="187" type="curve" smooth="yes"/>
      <point x="367" y="187"/>
      <point x="427" y="260"/>
      <point x="427" y="370" type="curve" smooth="yes"/>
      <point x="427" y="479"/>
      <point x="368" y="552"/>
      <point x="278" y="552" type="curve" smooth="yes"/>
      <point x="187" y="552"/>
      <point x="126" y="479"/>
    </contour>
    <contour>
      <point x="200" y="370" type="curve" smooth="yes"/>
      <point x="200" y="445"/>
      <point x="230" y="485"/>
      <point x="277" y="485" type="curve" smooth="yes"/>
      <point x="324" y="485"/>
      <point x="353" y="445"/>
      <point x="353" y="370" type="curve" smooth="yes"/>
      <point x="353" y="296"/>
      <point x="324" y="254"/>
      <point x="277" y="254" type="curve" smooth="yes"/>
      <point x="230" y="254"/>
      <point x="200" y="297"/>
    </contour>
    <contour>
      <point x="38" y="562" type="line"/>
      <point x="92" y="507" type="line"/>
      <point x="170" y="451" type="line"/>
      <point x="197" y="478" type="line"/>
      <point x="141" y="556" type="line"/>
      <point x="86" y="610" type="line"/>
    </contour>
    <contour>
      <point x="86" y="131" type="line"/>
      <point x="141" y="185" type="line"/>
      <point x="197" y="264" type="line"/>
      <point x="171" y="290" type="line"/>
      <point x="92" y="234" type="line"/>
      <point x="38" y="179" type="line"/>
    </contour>
    <contour>
      <point x="517" y="179" type="line"/>
      <point x="463" y="234" type="line"/>
      <point x="384" y="290" type="line"/>
      <point x="358" y="264" type="line"/>
      <point x="414" y="185" type="line"/>
      <point x="469" y="131" type="line"/>
    </contour>
    <contour>
      <point x="469" y="610" type="line"/>
      <point x="414" y="556" type="line"/>
      <point x="357" y="476" type="line"/>
      <point x="384" y="451" type="line"/>
      <point x="463" y="507" type="line"/>
      <point x="517" y="562" type="line"/>
    </contour>
  </outline>
</glyph>
<glyph name="copyright" format="1">
  <advance width="815"/>
  <unicode hex="00A9"/>
  <outline>
    <contour>
      <point x="423" y="164" type="curve" smooth="yes"/>
      <point x="454" y="164"/>
      <point x="487" y="168"/>
      <point x="512" y="175" type="curve"/>
      <point x="512" y="243" type="line"/>
      <point x="481" y="237"/>
      <point x="451" y="233"/>
      <point x="430" y="233" type="curve" smooth="yes"/>
      <point x="355" y="233"/>
      <point x="318" y="275"/>
      <point x="318" y="368" type="curve" smooth="yes"/>
      <point x="318" y="460"/>
      <point x="354" y="503"/>
      <point x="432" y="503" type="curve" smooth="yes"/>
      <point x="454" y="503"/>
      <point x="481" y="500"/>
      <point x="511" y="494" type="curve"/>
      <point x="511" y="563" type="line"/>
      <point x="486" y="569"/>
      <point x="453" y="573"/>
      <point x="423" y="573" type="curve" smooth="yes"/>
      <point x="305" y="573"/>
      <point x="237" y="505"/>
      <point x="237" y="367" type="curve" smooth="yes"/>
      <point x="237" y="232"/>
      <point x="305" y="164"/>
    </contour>
    <contour>
      <point x="408" y="-11" type="curve" smooth="yes"/>
      <point x="631" y="-11"/>
      <point x="779" y="143"/>
      <point x="779" y="370" type="curve" smooth="yes"/>
      <point x="779" y="598"/>
      <point x="631" y="751"/>
      <point x="408" y="751" type="curve" smooth="yes"/>
      <point x="184" y="751"/>
      <point x="37" y="598"/>
      <point x="37" y="370" type="curve" smooth="yes"/>
      <point x="37" y="143"/>
      <point x="184" y="-11"/>
    </contour>
    <contour>
      <point x="408" y="56" type="curve" smooth="yes"/>
      <point x="222" y="56"/>
      <point x="106" y="181"/>
      <point x="106" y="370" type="curve" smooth="yes"/>
      <point x="106" y="560"/>
      <point x="222" y="685"/>
      <point x="408" y="685" type="curve" smooth="yes"/>
      <point x="593" y="685"/>
      <point x="709" y="560"/>
      <point x="709" y="370" type="curve" smooth="yes"/>
      <point x="709" y="181"/>
      <point x="593" y="56"/>
    </contour>
  </outline>
</glyph>
<glyph name="uni00AD" format="1">
  <advance width="360"/>
  <unicode hex="00AD"/>
  <outline>
    <contour>
      <point x="50" y="237" type="line"/>
      <point x="310" y="237" type="line"/>
      <point x="310" y="323" type="line"/>
      <point x="50" y="323" type="line"/>
    </contour>
  </outline>
</glyph>
<glyph name="threesuperior" format="1">
  <advance width="345"/>
  <unicode hex="00B3"/>
  <outline>
    <contour>
      <point x="130" y="294" type="curve" smooth="yes"/>
      <point x="246" y="294"/>
      <point x="315" y="351"/>
      <point x="315" y="447" type="curve" smooth="yes"/>
      <point x="315" y="517"/>
      <point x="280" y="564"/>
      <point x="214" y="584" type="curve"/>
      <point x="269" y="603"/>
      <point x="300" y="649"/>
      <point x="300" y="715" type="curve" smooth="yes"/>
      <point x="300" y="807"/>
      <point x="244" y="854"/>
      <point x="131" y="854" type="curve" smooth="yes"/>
      <point x="98" y="854"/>
      <point x="66" y="850"/>
      <point x="32" y="841" type="curve"/>
      <point x="37" y="760" type="line"/>
      <point x="47" y="760" type="line"/>
      <point x="77" y="767"/>
      <point x="102" y="770"/>
      <point x="123" y="770" type="curve" smooth="yes"/>
      <point x="176" y="770"/>
      <point x="203" y="744"/>
      <point x="203" y="696" type="curve" smooth="yes"/>
      <point x="203" y="646"/>
      <point x="170" y="618"/>
      <point x="105" y="618" type="curve" smooth="yes"/>
      <point x="81" y="618" type="line"/>
      <point x="81" y="541" type="line"/>
      <point x="105" y="541" type="line" smooth="yes"/>
      <point x="184" y="541"/>
      <point x="218" y="514"/>
      <point x="218" y="455" type="curve" smooth="yes"/>
      <point x="218" y="405"/>
      <point x="185" y="378"/>
      <point x="118" y="378" type="curve" smooth="yes"/>
      <point x="93" y="378"/>
      <point x="66" y="382"/>
      <point x="45" y="388" type="curve"/>
      <point x="35" y="388" type="line"/>
      <point x="35" y="305" type="line"/>
      <point x="67" y="298"/>
      <point x="97" y="294"/>
    </contour>
  </outline>
</glyph>
<glyph name="mu" format="1">
  <advance width="532"/>
  <unicode hex="00B5"/>
  <outline>
    <contour>
      <point x="199" y="-10" type="curve" smooth="yes"/>
      <point x="246" y="-10"/>
      <point x="285" y="7"/>
      <point x="357" y="56" type="curve"/>
      <point x="361" y="56" type="line"/>
      <point x="368" y="0" type="line"/>
      <point x="463" y="0" type="line"/>
      <point x="463" y="540" type="line"/>
      <point x="351" y="540" type="line"/>
      <point x="351" y="130" type="line"/>
      <point x="306" y="100"/>
      <point x="274" y="87"/>
      <point x="243" y="87" type="curve" smooth="yes"/>
      <point x="200" y="87"/>
      <point x="178" y="113"/>
      <point x="178" y="166" type="curve" smooth="yes"/>
      <point x="178" y="540" type="line"/>
      <point x="66" y="540" type="line"/>
      <point x="66" y="133" type="line" smooth="yes"/>
      <point x="66" y="39"/>
      <point x="113" y="-10"/>
    </contour>
    <contour>
      <point x="66" y="-220" type="line"/>
      <point x="178" y="-220" type="line"/>
      <point x="178" y="210" type="line"/>
      <point x="66" y="210" type="line"/>
    </contour>
  </outline>
</glyph>
<glyph name="cedilla" format="1">
  <advance width="260"/>
  <unicode hex="00B8"/>
  <outline>
    <contour>
      <point x="131" y="0" type="move" name="_bottom"/>
    </contour>
    <contour>
      <point x="99" y="-220" type="curve" smooth="yes"/>
      <point x="173" y="-220"/>
      <point x="212" y="-180"/>
      <point x="212" y="-113" type="curve" smooth="yes"/>
      <point x="212" y="-69"/>
      <point x="197" y="-28"/>
      <point x="160" y="26" type="curve"/>
      <point x="85" y="26" type="line"/>
      <point x="114" y="-18"/>
      <point x="134" y="-64"/>
      <point x="134" y="-96" type="curve" smooth="yes"/>
      <point x="134" y="-128"/>
      <point x="118" y="-146"/>
      <point x="84" y="-146" type="curve" smooth="yes"/>
      <point x="72" y="-146"/>
      <point x="48" y="-144"/>
      <point x="25" y="-137" type="curve"/>
      <point x="25" y="-209" type="line"/>
      <point x="52" y="-217"/>
      <point x="78" y="-220"/>
    </contour>
  </outline>
</glyph>
<glyph name="ordmasculine" format="1">
  <advance width="409"/>
  <unicode hex="00BA"/>
  <outline>
    <contour>
      <point x="205" y="414" type="curve" smooth="yes"/>
      <point x="149" y="414"/>
      <point x="124" y="443"/>
      <point x="124" y="546" type="curve" smooth="yes"/>
      <point x="124" y="650"/>
      <point x="149" y="679"/>
      <point x="205" y="679" type="curve" smooth="yes"/>
      <point x="260" y="679"/>
      <point x="285" y="650"/>
      <point x="285" y="546" type="curve" smooth="yes"/>
      <point x="285" y="443"/>
      <point x="260" y="414"/>
    </contour>
    <contour>
      <point x="205" y="345" type="curve" smooth="yes"/>
      <point x="313" y="345"/>
      <point x="375" y="411"/>
      <point x="375" y="546" type="curve" smooth="yes"/>
      <point x="375" y="681"/>
      <point x="313" y="747"/>
      <point x="205" y="747" type="curve" smooth="yes"/>
      <point x="97" y="747"/>
      <point x="34" y="681"/>
      <point x="34" y="546" type="curve" smooth="yes"/>
      <point x="34" y="411"/>
      <point x="97" y="345"/>
    </contour>
  </outline>
</glyph>
<glyph name="Thorn" format="1">
  <advance width="556"/>
  <unicode hex="00DE"/>
  <outline>
    <contour>
      <point x="235" y="112" type="curve" smooth="yes"/>
      <point x="441" y="112"/>
      <point x="530" y="190"/>
      <point x="530" y="369" type="curve" smooth="yes"/>
      <point x="530" y="549"/>
      <point x="441" y="627"/>
      <point x="236" y="627" type="curve" smooth="yes"/>
      <point x="181" y="627"/>
      <point x="124" y="622"/>
      <point x="66" y="611" type="curve"/>
      <point x="66" y="123" type="line"/>
      <point x="119" y="116"/>
      <point x="178" y="112"/>
    </contour>
    <contour>
      <point x="251" y="206" type="curve" smooth="yes"/>
      <point x="235" y="206"/>
      <point x="198" y="208"/>
      <point x="180" y="210" type="curve"/>
      <point x="180" y="526" type="line"/>
      <point x="201" y="529"/>
      <point x="238" y="531"/>
      <point x="254" y="531" type="curve" smooth="yes"/>
      <point x="369" y="531"/>
      <point x="413" y="484"/>
      <point x="413" y="369" type="curve" smooth="yes"/>
      <point x="413" y="252"/>
      <point x="367" y="206"/>
    </contour>
    <contour>
      <point x="66" y="0" type="line"/>
      <point x="180" y="0" type="line"/>
      <point x="180" y="740" type="line"/>
      <point x="66" y="740" type="line"/>
    </contour>
  </outline>
</glyph>
<glyph name="germandbls" format="1">
  <advance width="585"/>
  <unicode hex="00DF"/>
  <outline>
    <contour>
      <point x="378" y="-11" type="curve" smooth="yes"/>
      <point x="493" y="-11"/>
      <point x="564" y="53"/>
      <point x="564" y="155" type="curve" smooth="yes"/>
      <point x="564" y="272"/>
      <point x="491" y="298"/>
      <point x="414" y="317" type="curve" smooth="yes"/>
      <point x="372" y="327"/>
      <point x="338" y="341"/>
      <point x="338" y="393" type="curve" smooth="yes"/>
      <point x="338" y="437"/>
      <point x="375" y="464"/>
      <point x="437" y="464" type="curve"/>
      <point x="495" y="464" type="line"/>
      <point x="489" y="551" type="line"/>
      <point x="415" y="551" type="line"/>
      <point x="305" y="551"/>
      <point x="234" y="487"/>
      <point x="234" y="388" type="curve" smooth="yes"/>
      <point x="234" y="251"/>
      <point x="320" y="238"/>
      <point x="383" y="226" type="curve" smooth="yes"/>
      <point x="434" y="214"/>
      <point x="457" y="190"/>
      <point x="457" y="148" type="curve" smooth="yes"/>
      <point x="457" y="102"/>
      <point x="427" y="75"/>
      <point x="374" y="75" type="curve" smooth="yes"/>
      <point x="329" y="75"/>
      <point x="273" y="85"/>
      <point x="231" y="100" type="curve"/>
      <point x="231" y="14" type="line"/>
      <point x="288" y="-3"/>
      <point x="334" y="-11"/>
    </contour>
    <contour>
      <point x="56" y="0" type="line"/>
      <point x="168" y="0" type="line"/>
      <point x="168" y="589" type="line" smooth="yes"/>
      <point x="168" y="687"/>
      <point x="197" y="722"/>
      <point x="281" y="722" type="curve" smooth="yes"/>
      <point x="364" y="722"/>
      <point x="394" y="686"/>
      <point x="394" y="589" type="curve" smooth="yes"/>
      <point x="394" y="464" type="line"/>
      <point x="506" y="464" type="line"/>
      <point x="506" y="589" type="line" smooth="yes"/>
      <point x="506" y="743"/>
      <point x="436" y="812"/>
      <point x="281" y="812" type="curve" smooth="yes"/>
      <point x="125" y="812"/>
      <point x="56" y="743"/>
      <point x="56" y="589" type="curve" smooth="yes"/>
    </contour>
  </outline>
</glyph>
<glyph name="icircumflex" format="1">
  <advance width="226"/>
  <unicode hex="00EE"/>
  <outline>
    <contour>
      <point x="-25" y="624" type="line"/>
      <point x="122" y="695" type="line"/>
      <point x="268" y="624" type="line"/>
      <point x="268" y="706" type="line"/>
      <point x="122" y="778" type="line"/>
      <point x="-25" y="706" type="line"/>
    </contour>
    <component base="dotlessi" xOffset="1"/>
  </outline>
</glyph>
<glyph name="idieresis" format="1">
  <advance width="226"/>
  <unicode hex="00EF"/>
  <outline>
    <contour>
      <point x="15" y="622" type="curve" smooth="yes"/>
      <point x="54" y="622"/>
      <point x="75" y="640"/>
      <point x="75" y="681" type="curve" smooth="yes"/>
      <point x="75" y="721"/>
      <point x="54" y="739"/>
      <point x="15" y="739" type="curve" smooth="yes"/>
      <point x="-26" y="739"/>
      <point x="-45" y="721"/>
      <point x="-45" y="681" type="curve" smooth="yes"/>
      <point x="-45" y="640"/>
      <point x="-26" y="622"/>
    </contour>
    <contour>
      <point x="218" y="622" type="curve" smooth="yes"/>
      <point x="257" y="622"/>
      <point x="278" y="640"/>
      <point x="278" y="681" type="curve" smooth="yes"/>
      <point x="278" y="721"/>
      <point x="257" y="739"/>
      <point x="218" y="739" type="curve" smooth="yes"/>
      <point x="178" y="739"/>
      <point x="158" y="721"/>
      <point x="158" y="681" type="curve" smooth="yes"/>
      <point x="158" y="640"/>
      <point x="178" y="622"/>
    </contour>
    <component base="dotlessi" xOffset="1"/>
  </outline>
</glyph>
<glyph name="divide" format="1">
  <advance width="505"/>
  <unicode hex="00F7"/>
  <outline>
    <contour>
      <point x="255" y="140" type="curve" smooth="yes"/>
      <point x="289" y="140"/>
      <point x="313" y="160"/>
      <point x="313" y="199" type="curve" smooth="yes"/>
      <point x="313" y="236"/>
      <point x="289" y="256"/>
      <point x="255" y="256" type="curve" smooth="yes"/>
      <point x="221" y="256"/>
      <point x="198" y="237"/>
      <point x="198" y="199" type="curve" smooth="yes"/>
      <point x="198" y="160"/>
      <point x="221" y="140"/>
    </contour>
    <contour>
      <point x="43" y="328" type="line"/>
      <point x="462" y="328" type="line"/>
      <point x="462" y="412" type="line"/>
      <point x="43" y="412" type="line"/>
    </contour>
    <contour>
      <point x="255" y="481" type="curve" smooth="yes"/>
      <point x="289" y="481"/>
      <point x="313" y="500"/>
      <point x="313" y="537" type="curve" smooth="yes"/>
      <point x="313" y="576"/>
      <point x="289" y="596"/>
      <point x="255" y="596" type="curve" smooth="yes"/>
      <point x="221" y="596"/>
      <point x="198" y="576"/>
      <point x="198" y="537" type="curve" smooth="yes"/>
      <point x="198" y="500"/>
      <point x="221" y="481"/>
    </contour>
  </outline>
</glyph>
<glyph name="Dcroat" format="1">
  <advance width="626"/>
  <unicode hex="0110"/>
  <outline>
    <contour>
      <point x="-1" y="326" type="line"/>
      <point x="313" y="326" type="line"/>
      <point x="313" y="416" type="line"/>
      <point x="-1" y="416" type="line"/>
    </contour>
    <component base="D" xOffset="18"/>
  </outline>
</glyph>
<glyph name="dcroat" format="1">
  <advance width="510"/>
  <unicode hex="0111"/>
  <outline>
    <contour>
      <point x="202" y="639" type="line"/>
      <point x="519" y="639" type="line"/>
      <point x="519" y="708" type="line"/>
      <point x="202" y="708" type="line"/>
    </contour>
    <component base="d"/>
  </outline>
</glyph>
<glyph name="hbar" format="1">
  <advance width="506"/>
  <unicode hex="0127"/>
  <outline>
    <contour>
      <point x="-24" y="639" type="line"/>
      <point x="294" y="639" type="line"/>
      <point x="294" y="708" type="line"/>
      <point x="-24" y="708" type="line"/>
    </contour>
    <component base="h" xOffset="1"/>
  </outline>
</glyph>
<glyph name="ibreve" format="1">
  <advance width="226"/>
  <unicode hex="012D"/>
  <outline>
    <contour>
      <point x="117" y="616" type="curve" smooth="yes"/>
      <point x="217" y="616"/>
      <point x="274" y="669"/>
      <point x="278" y="765" type="curve"/>
      <point x="198" y="765" type="line"/>
      <point x="197" y="711"/>
      <point x="168" y="681"/>
      <point x="117" y="681" type="curve" smooth="yes"/>
      <point x="65" y="681"/>
      <point x="36" y="711"/>
      <point x="35" y="765" type="curve"/>
      <point x="-45" y="765" type="line"/>
      <point x="-42" y="669"/>
      <point x="16" y="616"/>
    </contour>
    <component base="dotlessi" xOffset="1"/>
  </outline>
</glyph>
<glyph name="dotlessi" format="1">
  <advance width="224"/>
  <unicode hex="0131"/>
  <outline>
    <contour>
      <point x="116" y="600" type="move" name="top"/>
    </contour>
    <contour>
      <point x="56" y="0" type="line"/>
      <point x="168" y="0" type="line"/>
      <point x="168" y="540" type="line"/>
      <point x="56" y="540" type="line"/>
    </contour>
  </outline>
</glyph>
<glyph name="kgreenlandic" format="1">
  <advance width="474"/>
  <unicode hex="0138"/>
  <outline>
    <contour>
      <point x="56" y="0" type="line"/>
      <point x="168" y="0" type="line"/>
      <point x="168" y="236" type="line"/>
      <point x="225" y="236" type="line"/>
      <point x="357" y="0" type="line"/>
      <point x="480" y="0" type="line"/>
      <point x="318" y="268" type="line"/>
      <point x="299" y="276" type="line"/>
      <point x="299" y="279" type="line"/>
      <point x="318" y="287" type="line"/>
      <point x="463" y="540" type="line"/>
      <point x="341" y="540" type="line"/>
      <point x="226" y="320" type="line"/>
      <point x="168" y="320" type="line"/>
      <point x="168" y="540" type="line"/>
      <point x="56" y="540" type="line"/>
    </contour>
  </outline>
</glyph>
<glyph name="OE" format="1">
  <advance width="847"/>
  <unicode hex="0152"/>
  <outline>
    <contour>
      <point x="327" y="-6" type="curve" smooth="yes"/>
      <point x="359" y="-6"/>
      <point x="396" y="-5"/>
      <point x="422" y="0" type="curve"/>
      <point x="811" y="0" type="line"/>
      <point x="811" y="98" type="line"/>
      <point x="534" y="98" type="line"/>
      <point x="534" y="331" type="line"/>
      <point x="781" y="331" type="line"/>
      <point x="781" y="424" type="line"/>
      <point x="534" y="424" type="line"/>
      <point x="534" y="643" type="line"/>
      <point x="802" y="643" type="line"/>
      <point x="802" y="740" type="line"/>
      <point x="422" y="740" type="line"/>
      <point x="396" y="743"/>
      <point x="359" y="746"/>
      <point x="327" y="746" type="curve" smooth="yes"/>
      <point x="140" y="746"/>
      <point x="37" y="621"/>
      <point x="37" y="370" type="curve" smooth="yes"/>
      <point x="37" y="119"/>
      <point x="139" y="-6"/>
    </contour>
    <contour>
      <point x="341" y="92" type="curve" smooth="yes"/>
      <point x="201" y="92"/>
      <point x="152" y="169"/>
      <point x="152" y="369" type="curve" smooth="yes"/>
      <point x="152" y="569"/>
      <point x="202" y="648"/>
      <point x="340" y="648" type="curve" smooth="yes"/>
      <point x="363" y="648"/>
      <point x="393" y="646"/>
      <point x="420" y="642" type="curve"/>
      <point x="420" y="97" type="line"/>
      <point x="395" y="93"/>
      <point x="364" y="92"/>
    </contour>
  </outline>
</glyph>
<glyph name="apostrophe" format="1">
  <advance width="198"/>
  <unicode hex="02BC"/>
  <outline>
    <contour>
      <point x="104" y="674" type="move" name="_apostrophe"/>
    </contour>
    <contour>
      <point x="59" y="808" type="line"/>
      <point x="59" y="580" type="line"/>
      <point x="114" y="580" type="line"/>
      <point x="150" y="804" type="line"/>
      <point x="150" y="808" type="line"/>
    </contour>
  </outline>
</glyph>
<glyph name="breve" format="1">
  <advance width="406"/>
  <unicode hex="02D8"/>
  <outline>
    <contour>
      <point x="202" y="600" type="move" name="_top"/>
    </contour>
    <contour>
      <point x="202" y="616" type="curve" smooth="yes"/>
      <point x="302" y="616"/>
      <point x="359" y="669"/>
      <point x="363" y="765" type="curve"/>
      <point x="283" y="765" type="line"/>
      <point x="282" y="711"/>
      <point x="253" y="681"/>
      <point x="202" y="681" type="curve" smooth="yes"/>
      <point x="150" y="681"/>
      <point x="121" y="711"/>
      <point x="120" y="765" type="curve"/>
      <point x="40" y="765" type="line"/>
      <point x="44" y="669"/>
      <point x="101" y="616"/>
    </contour>
  </outline>
</glyph>
<glyph name="hungarumlaut" format="1">
  <advance width="391"/>
  <unicode hex="02DD"/>
  <outline>
    <contour>
      <point x="157" y="600" type="move" name="_top"/>
    </contour>
    <contour>
      <point x="96" y="610" type="line"/>
      <point x="201" y="803" type="line"/>
      <point x="102" y="803" type="line"/>
      <point x="33" y="620" type="line"/>
    </contour>
    <contour>
      <point x="265" y="610" type="line"/>
      <point x="370" y="803" type="line"/>
      <point x="272" y="803" type="line"/>
      <point x="202" y="620" type="line"/>
    </contour>
  </outline>
</glyph>
<glyph name="daggerdbl" format="1">
  <advance width="479"/>
  <unicode hex="2021"/>
  <outline>
    <contour>
      <point x="185" y="-198" type="line"/>
      <point x="293" y="-198" type="line"/>
      <point x="293" y="-119" type="line"/>
      <point x="266" y="47" type="line"/>
      <point x="430" y="25" type="line"/>
      <point x="439" y="25" type="line"/>
      <point x="439" y="122" type="line"/>
      <point x="430" y="122" type="line"/>
      <point x="266" y="100" type="line"/>
      <point x="293" y="265" type="line"/>
      <point x="293" y="345" type="line"/>
      <point x="266" y="511" type="line"/>
      <point x="430" y="489" type="line"/>
      <point x="439" y="489" type="line"/>
      <point x="439" y="586" type="line"/>
      <point x="430" y="586" type="line"/>
      <point x="266" y="564" type="line"/>
      <point x="293" y="729" type="line"/>
      <point x="293" y="808" type="line"/>
      <point x="185" y="808" type="line"/>
      <point x="185" y="729" type="line"/>
      <point x="213" y="564" type="line"/>
      <point x="50" y="586" type="line"/>
      <point x="41" y="586" type="line"/>
      <point x="41" y="489" type="line"/>
      <point x="50" y="489" type="line"/>
      <point x="213" y="511" type="line"/>
      <point x="185" y="345" type="line"/>
      <point x="185" y="265" type="line"/>
      <point x="213" y="100" type="line"/>
      <point x="50" y="122" type="line"/>
      <point x="41" y="122" type="line"/>
      <point x="41" y="25" type="line"/>
      <point x="50" y="25" type="line"/>
      <point x="213" y="47" type="line"/>
      <point x="185" y="-119" type="line"/>
    </contour>
  </outline>
</glyph>
<glyph name="fraction" format="1">
  <advance width="220"/>
  <unicode hex="2044"/>
  <outline>
    <contour>
      <point x="-67" y="0" type="line"/>
      <point x="26" y="0" type="line"/>
      <point x="286" y="740" type="line"/>
      <point x="193" y="740" type="line"/>
    </contour>
  </outline>
</glyph>
<glyph name="eightsuperior" format="1">
  <advance width="403"/>
  <unicode hex="2078"/>
  <outline>
    <contour>
      <point x="201" y="298" type="curve" smooth="yes"/>
      <point x="307" y="298"/>
      <point x="372" y="356"/>
      <point x="372" y="450" type="curve" smooth="yes"/>
      <point x="372" y="514"/>
      <point x="349" y="556"/>
      <point x="297" y="585" type="curve"/>
      <point x="340" y="610"/>
      <point x="358" y="647"/>
      <point x="358" y="709" type="curve" smooth="yes"/>
      <point x="358" y="798"/>
      <point x="298" y="853"/>
      <point x="201" y="853" type="curve" smooth="yes"/>
      <point x="105" y="853"/>
      <point x="44" y="797"/>
      <point x="44" y="709" type="curve" smooth="yes"/>
      <point x="44" y="649"/>
      <point x="64" y="608"/>
      <point x="107" y="579" type="curve"/>
      <point x="55" y="548"/>
      <point x="31" y="503"/>
      <point x="31" y="438" type="curve" smooth="yes"/>
      <point x="31" y="352"/>
      <point x="96" y="298"/>
    </contour>
    <contour>
      <point x="201" y="371" type="curve" smooth="yes"/>
      <point x="149" y="371"/>
      <point x="116" y="402"/>
      <point x="116" y="451" type="curve" smooth="yes"/>
      <point x="116" y="496"/>
      <point x="134" y="523"/>
      <point x="183" y="549" type="curve"/>
      <point x="203" y="542" type="line" smooth="yes"/>
      <point x="265" y="521"/>
      <point x="287" y="497"/>
      <point x="287" y="450" type="curve" smooth="yes"/>
      <point x="287" y="401"/>
      <point x="254" y="371"/>
    </contour>
    <contour>
      <point x="216" y="610" type="curve"/>
      <point x="205" y="613" type="line" smooth="yes"/>
      <point x="150" y="631"/>
      <point x="127" y="656"/>
      <point x="127" y="702" type="curve" smooth="yes"/>
      <point x="127" y="749"/>
      <point x="154" y="778"/>
      <point x="201" y="778" type="curve" smooth="yes"/>
      <point x="248" y="778"/>
      <point x="276" y="752"/>
      <point x="276" y="703" type="curve" smooth="yes"/>
      <point x="276" y="657"/>
      <point x="258" y="629"/>
    </contour>
  </outline>
</glyph>
<glyph name="ninesuperior" format="1">
  <advance width="406"/>
  <unicode hex="2079"/>
  <outline>
    <contour>
      <point x="147" y="293" type="curve" smooth="yes"/>
      <point x="294" y="293"/>
      <point x="374" y="402"/>
      <point x="374" y="603" type="curve" smooth="yes"/>
      <point x="374" y="766"/>
      <point x="312" y="855"/>
      <point x="197" y="855" type="curve" smooth="yes"/>
      <point x="91" y="855"/>
      <point x="24" y="781"/>
      <point x="24" y="666" type="curve" smooth="yes"/>
      <point x="24" y="569"/>
      <point x="84" y="507"/>
      <point x="179" y="507" type="curve" smooth="yes"/>
      <point x="214" y="507"/>
      <point x="250" y="520"/>
      <point x="280" y="544" type="curve"/>
      <point x="269" y="431"/>
      <point x="224" y="373"/>
      <point x="145" y="373" type="curve" smooth="yes"/>
      <point x="122" y="373"/>
      <point x="97" y="377"/>
      <point x="62" y="386" type="curve"/>
      <point x="53" y="307" type="line"/>
      <point x="91" y="297"/>
      <point x="121" y="293"/>
    </contour>
    <contour>
      <point x="197" y="573" type="curve" smooth="yes"/>
      <point x="144" y="573"/>
      <point x="116" y="606"/>
      <point x="116" y="668" type="curve" smooth="yes"/>
      <point x="116" y="732"/>
      <point x="145" y="771"/>
      <point x="197" y="771" type="curve" smooth="yes"/>
      <point x="254" y="771"/>
      <point x="282" y="722"/>
      <point x="284" y="616" type="curve"/>
      <point x="258" y="590"/>
      <point x="225" y="573"/>
    </contour>
  </outline>
</glyph>
<glyph name="twoinferior" format="1">
  <advance width="367"/>
  <unicode hex="2082"/>
  <outline>
    <contour>
      <point x="29" y="-100" type="line"/>
      <point x="332" y="-100" type="line"/>
      <point x="332" y="-17" type="line"/>
      <point x="131" y="-17" type="line"/>
      <point x="131" y="5" type="line" smooth="yes"/>
      <point x="131" y="49"/>
      <point x="164" y="90"/>
      <point x="233" y="141" type="curve" smooth="yes"/>
      <point x="302" y="190"/>
      <point x="334" y="239"/>
      <point x="334" y="311" type="curve" smooth="yes"/>
      <point x="334" y="405"/>
      <point x="280" y="454"/>
      <point x="175" y="454" type="curve" smooth="yes"/>
      <point x="137" y="454"/>
      <point x="91" y="447"/>
      <point x="40" y="433" type="curve"/>
      <point x="51" y="353" type="line"/>
      <point x="89" y="363"/>
      <point x="123" y="369"/>
      <point x="152" y="369" type="curve" smooth="yes"/>
      <point x="207" y="369"/>
      <point x="235" y="346"/>
      <point x="235" y="302" type="curve" smooth="yes"/>
      <point x="235" y="261"/>
      <point x="213" y="231"/>
      <point x="156" y="190" type="curve" smooth="yes"/>
      <point x="64" y="127"/>
      <point x="29" y="72"/>
      <point x="29" y="-13" type="curve" smooth="yes"/>
    </contour>
  </outline>
</glyph>
<glyph name="sixinferior" format="1">
  <advance width="405"/>
  <unicode hex="2086"/>
  <outline>
    <contour>
      <point x="209" y="-108" type="curve" smooth="yes"/>
      <point x="314" y="-108"/>
      <point x="381" y="-34"/>
      <point x="381" y="81" type="curve" smooth="yes"/>
      <point x="381" y="179"/>
      <point x="321" y="240"/>
      <point x="226" y="240" type="curve" smooth="yes"/>
      <point x="191" y="240"/>
      <point x="154" y="227"/>
      <point x="125" y="204" type="curve"/>
      <point x="136" y="317"/>
      <point x="182" y="375"/>
      <point x="261" y="375" type="curve" smooth="yes"/>
      <point x="284" y="375"/>
      <point x="309" y="371"/>
      <point x="343" y="361" type="curve"/>
      <point x="353" y="440" type="line"/>
      <point x="317" y="450"/>
      <point x="286" y="455"/>
      <point x="259" y="455" type="curve" smooth="yes"/>
      <point x="111" y="455"/>
      <point x="32" y="345"/>
      <point x="32" y="145" type="curve" smooth="yes"/>
      <point x="32" y="-20"/>
      <point x="94" y="-108"/>
    </contour>
    <contour>
      <point x="209" y="-24" type="curve" smooth="yes"/>
      <point x="151" y="-24"/>
      <point x="124" y="26"/>
      <point x="122" y="132" type="curve"/>
      <point x="147" y="157"/>
      <point x="181" y="174"/>
      <point x="208" y="174" type="curve" smooth="yes"/>
      <point x="262" y="174"/>
      <point x="290" y="142"/>
      <point x="290" y="79" type="curve" smooth="yes"/>
      <point x="290" y="15"/>
      <point x="260" y="-24"/>
    </contour>
  </outline>
</glyph>
<glyph name="franc" format="1">
  <advance width="558"/>
  <unicode hex="20A3"/>
  <outline>
    <contour>
      <point x="124" y="0" type="line"/>
      <point x="238" y="0" type="line"/>
      <point x="238" y="642" type="line"/>
      <point x="523" y="642" type="line"/>
      <point x="523" y="740" type="line"/>
      <point x="124" y="740" type="line"/>
    </contour>
    <contour>
      <point x="26" y="100" type="line"/>
      <point x="342" y="100" type="line"/>
      <point x="342" y="174" type="line"/>
      <point x="26" y="174" type="line"/>
    </contour>
    <contour>
      <point x="208" y="324" type="line"/>
      <point x="500" y="324" type="line"/>
      <point x="500" y="422" type="line"/>
      <point x="208" y="422" type="line"/>
    </contour>
  </outline>
</glyph>
<glyph name="uni20A6" format="1">
  <advance width="795"/>
  <unicode hex="20A6"/>
  <outline>
    <contour>
      <point x="36" y="228" type="line"/>
      <point x="759" y="228" type="line"/>
      <point x="759" y="297" type="line"/>
      <point x="36" y="297" type="line"/>
    </contour>
    <contour>
      <point x="36" y="442" type="line"/>
      <point x="759" y="442" type="line"/>
      <point x="759" y="511" type="line"/>
      <point x="36" y="511" type="line"/>
    </contour>
    <component base="N" xOffset="67"/>
  </outline>
</glyph>
<glyph name="Omega" format="1">
  <advance width="724"/>
  <unicode hex="2126"/>
  <outline>
    <contour>
      <point x="38" y="0" type="line"/>
      <point x="321" y="0" type="line"/>
      <point x="321" y="82" type="line"/>
      <point x="275" y="119"/>
      <point x="164" y="193"/>
      <point x="164" y="418" type="curve" smooth="yes"/>
      <point x="164" y="564"/>
      <point x="242" y="661"/>
      <point x="362" y="661" type="curve" smooth="yes"/>
      <point x="484" y="661"/>
      <point x="564" y="564"/>
      <point x="564" y="418" type="curve" smooth="yes"/>
      <point x="564" y="193"/>
      <point x="451" y="119"/>
      <point x="403" y="82" type="curve"/>
      <point x="403" y="0" type="line"/>
      <point x="686" y="0" type="line"/>
      <point x="686" y="98" type="line"/>
      <point x="492" y="89" type="line"/>
      <point x="573" y="138"/>
      <point x="675" y="235"/>
      <point x="675" y="418" type="curve" smooth="yes"/>
      <point x="675" y="618"/>
      <point x="551" y="750"/>
      <point x="362" y="750" type="curve" smooth="yes"/>
      <point x="173" y="750"/>
      <point x="49" y="618"/>
      <point x="49" y="418" type="curve" smooth="yes"/>
      <point x="49" y="235"/>
      <point x="150" y="139"/>
      <point x="232" y="90" type="curve"/>
      <point x="38" y="98" type="line"/>
    </contour>
  </outline>
</glyph>
<glyph name="Delta" format="1">
  <advance width="643"/>
  <unicode hex="2206"/>
  <outline>
    <contour>
      <point x="19" y="0" type="line"/>
      <point x="624" y="0" type="line"/>
      <point x="395" y="740" type="line"/>
      <point x="248" y="740" type="line"/>
    </contour>
    <contour>
      <point x="154" y="98" type="line"/>
      <point x="321" y="637" type="line"/>
      <point x="488" y="98" type="line"/>
    </contour>
  </outline>
</glyph>
<glyph name="summation" format="1">
  <advance width="520"/>
  <unicode hex="2211"/>
  <outline>
    <contour>
      <point x="29" y="-101" type="line"/>
      <point x="485" y="-101" type="line"/>
      <point x="485" y="-3" type="line"/>
      <point x="164" y="-3" type="line"/>
      <point x="358" y="320" type="line"/>
      <point x="164" y="642" type="line"/>
      <point x="485" y="642" type="line"/>
      <point x="485" y="740" type="line"/>
      <point x="29" y="740" type="line"/>
      <point x="29" y="668" type="line"/>
      <point x="242" y="319" type="line"/>
      <point x="29" y="-29" type="line"/>
    </contour>
  </outline>
</glyph>
<glyph name="radical" format="1">
  <advance width="630"/>
  <unicode hex="221A"/>
  <outline>
    <contour>
      <point x="290" y="0" type="line"/>
      <point x="423" y="0" type="line"/>
      <point x="626" y="853" type="line"/>
      <point x="523" y="853" type="line"/>
      <point x="349" y="122" type="line"/>
      <point x="186" y="524" type="line"/>
      <point x="6" y="448" type="line"/>
      <point x="45" y="355" type="line"/>
      <point x="132" y="393" type="line"/>
    </contour>
  </outline>
</glyph>
<glyph name="infinity" format="1">
  <advance width="902"/>
  <unicode hex="221E"/>
  <outline>
    <contour>
      <point x="238" y="131" type="curve" smooth="yes"/>
      <point x="333" y="131"/>
      <point x="389" y="186"/>
      <point x="451" y="247" type="curve"/>
      <point x="525" y="163"/>
      <point x="587" y="131"/>
      <point x="664" y="131" type="curve" smooth="yes"/>
      <point x="781" y="131"/>
      <point x="866" y="208"/>
      <point x="866" y="312" type="curve" smooth="yes"/>
      <point x="866" y="416"/>
      <point x="781" y="491"/>
      <point x="664" y="491" type="curve" smooth="yes"/>
      <point x="577" y="491"/>
      <point x="511" y="445"/>
      <point x="450" y="383" type="curve"/>
      <point x="393" y="453"/>
      <point x="318" y="491"/>
      <point x="238" y="491" type="curve" smooth="yes"/>
      <point x="123" y="491"/>
      <point x="36" y="415"/>
      <point x="36" y="314" type="curve" smooth="yes"/>
      <point x="36" y="207"/>
      <point x="119" y="131"/>
    </contour>
    <contour>
      <point x="251" y="209" type="curve" smooth="yes"/>
      <point x="187" y="209"/>
      <point x="142" y="253"/>
      <point x="142" y="314" type="curve" smooth="yes"/>
      <point x="142" y="372"/>
      <point x="186" y="413"/>
      <point x="248" y="413" type="curve" smooth="yes"/>
      <point x="305" y="413"/>
      <point x="356" y="382"/>
      <point x="405" y="315" type="curve"/>
      <point x="343" y="238"/>
      <point x="300" y="209"/>
    </contour>
    <contour>
      <point x="654" y="209" type="curve" smooth="yes"/>
      <point x="603" y="209"/>
      <point x="561" y="236"/>
      <point x="497" y="313" type="curve"/>
      <point x="541" y="378"/>
      <point x="596" y="413"/>
      <point x="651" y="413" type="curve" smooth="yes"/>
      <point x="713" y="413"/>
      <point x="760" y="370"/>
      <point x="760" y="312" type="curve" smooth="yes"/>
      <point x="760" y="250"/>
      <point x="718" y="209"/>
    </contour>
  </outline>
</glyph>
<glyph name="approxequal" format="1">
  <advance width="509"/>
  <unicode hex="2248"/>
  <outline>
    <contour>
      <point x="53" y="402" type="line"/>
      <point x="91" y="420"/>
      <point x="127" y="432"/>
      <point x="172" y="432" type="curve" smooth="yes"/>
      <point x="234" y="432"/>
      <point x="279" y="396"/>
      <point x="341" y="396" type="curve" smooth="yes"/>
      <point x="386" y="396"/>
      <point x="422" y="417"/>
      <point x="458" y="433" type="curve"/>
      <point x="458" y="510" type="line"/>
      <point x="421" y="492"/>
      <point x="386" y="479"/>
      <point x="341" y="479" type="curve" smooth="yes"/>
      <point x="279" y="479"/>
      <point x="234" y="515"/>
      <point x="172" y="515" type="curve" smooth="yes"/>
      <point x="127" y="515"/>
      <point x="91" y="496"/>
      <point x="53" y="482" type="curve"/>
    </contour>
    <contour>
      <point x="53" y="200" type="line"/>
      <point x="91" y="218"/>
      <point x="127" y="230"/>
      <point x="172" y="230" type="curve" smooth="yes"/>
      <point x="234" y="230"/>
      <point x="279" y="194"/>
      <point x="341" y="194" type="curve" smooth="yes"/>
      <point x="386" y="194"/>
      <point x="422" y="215"/>
      <point x="458" y="230" type="curve"/>
      <point x="458" y="308" type="line"/>
      <point x="421" y="290"/>
      <point x="386" y="277"/>
      <point x="341" y="277" type="curve" smooth="yes"/>
      <point x="279" y="277"/>
      <point x="234" y="313"/>
      <point x="172" y="313" type="curve" smooth="yes"/>
      <point x="127" y="313"/>
      <point x="91" y="294"/>
      <point x="53" y="280" type="curve"/>
    </contour>
  </outline>
</glyph>
<glyph name="lessequal" format="1">
  <advance width="532"/>
  <unicode hex="2264"/>
  <outline>
    <contour>
      <point x="52" y="379" type="line"/>
      <point x="139" y="394" type="line"/>
      <point x="476" y="512" type="line"/>
      <point x="476" y="604" type="line"/>
      <point x="52" y="444" type="line"/>
    </contour>
    <contour>
      <point x="52" y="363" type="line"/>
      <point x="475" y="202" type="line"/>
      <point x="475" y="295" type="line"/>
      <point x="139" y="412" type="line"/>
      <point x="52" y="427" type="line"/>
    </contour>
    <contour>
      <point x="51" y="71" type="line"/>
      <point x="475" y="71" type="line"/>
      <point x="475" y="155" type="line"/>
      <point x="51" y="155" type="line"/>
    </contour>
  </outline>
</glyph>
<glyph name="lozenge" format="1">
  <advance width="503"/>
  <unicode hex="25CA"/>
  <outline>
    <contour>
      <point x="186" y="0" type="line"/>
      <point x="317" y="0" type="line"/>
      <point x="474" y="364" type="line"/>
      <point x="474" y="378" type="line"/>
      <point x="317" y="740" type="line"/>
      <point x="186" y="740" type="line"/>
      <point x="29" y="378" type="line"/>
      <point x="29" y="364" type="line"/>
    </contour>
    <contour>
      <point x="251" y="76" type="line"/>
      <point x="132" y="371" type="line"/>
      <point x="251" y="664" type="line"/>
      <point x="370" y="371" type="line"/>
    </contour>
  </outline>
</glyph>
<glyph name="AEacute.sc" format="1">
  <advance width="716"/>
  <outline>
    <contour>
      <point x="8" y="0" type="line"/>
      <point x="118" y="0" type="line"/>
      <point x="171" y="147" type="line"/>
      <point x="350" y="147" type="line"/>
      <point x="357" y="0" type="line"/>
      <point x="680" y="0" type="line"/>
      <point x="680" y="89" type="line"/>
      <point x="462" y="89" type="line"/>
      <point x="453" y="248" type="line"/>
      <point x="655" y="248" type="line"/>
      <point x="655" y="334" type="line"/>
      <point x="445" y="334" type="line"/>
      <point x="436" y="489" type="line"/>
      <point x="673" y="489" type="line"/>
      <point x="673" y="577" type="line"/>
      <point x="212" y="577" type="line"/>
      <point x="8" y="5" type="line"/>
    </contour>
    <contour>
      <point x="199" y="229" type="line"/>
      <point x="295" y="494" type="line"/>
      <point x="334" y="494" type="line"/>
      <point x="346" y="229" type="line"/>
    </contour>
    <contour>
      <point x="454" y="616" type="line"/>
      <point x="548" y="750" type="line"/>
      <point x="438" y="750" type="line"/>
      <point x="376" y="621" type="line"/>
    </contour>
  </outline>
</glyph>
<glyph name="B.sc" format="1">
  <advance width="521"/>
  <outline>
    <contour>
      <point x="236" y="-8" type="curve" smooth="yes"/>
      <point x="403" y="-8"/>
      <point x="488" y="48"/>
      <point x="488" y="156" type="curve" smooth="yes"/>
      <point x="488" y="233"/>
      <point x="445" y="282"/>
      <point x="370" y="295" type="curve"/>
      <point x="370" y="298" type="line"/>
      <point x="435" y="312"/>
      <point x="470" y="356"/>
      <point x="470" y="424" type="curve" smooth="yes"/>
      <point x="470" y="535"/>
      <point x="397" y="585"/>
      <point x="235" y="585" type="curve" smooth="yes"/>
      <point x="187" y="585"/>
      <point x="139" y="582"/>
      <point x="62" y="574" type="curve"/>
      <point x="62" y="4" type="line"/>
      <point x="111" y="-4"/>
      <point x="181" y="-8"/>
    </contour>
    <contour>
      <point x="253" y="74" type="curve" smooth="yes"/>
      <point x="216" y="74"/>
      <point x="178" y="76"/>
      <point x="163" y="79" type="curve"/>
      <point x="163" y="253" type="line"/>
      <point x="244" y="253" type="line" smooth="yes"/>
      <point x="343" y="253"/>
      <point x="382" y="228"/>
      <point x="382" y="163" type="curve" smooth="yes"/>
      <point x="382" y="104"/>
      <point x="338" y="74"/>
    </contour>
    <contour>
      <point x="163" y="329" type="line"/>
      <point x="163" y="498" type="line"/>
      <point x="193" y="501"/>
      <point x="219" y="503"/>
      <point x="247" y="503" type="curve" smooth="yes"/>
      <point x="325" y="503"/>
      <point x="362" y="476"/>
      <point x="362" y="417" type="curve" smooth="yes"/>
      <point x="362" y="351"/>
      <point x="331" y="329"/>
      <point x="242" y="329" type="curve" smooth="yes"/>
    </contour>
  </outline>
</glyph>
<glyph name="C.sc" format="1">
  <advance width="452"/>
  <outline>
    <contour>
      <point x="315" y="760" type="move" name="topUC"/>
    </contour>
    <contour>
      <point x="310" y="0" type="move" name="bottom"/>
    </contour>
    <contour>
      <point x="307" y="-8" type="curve" smooth="yes"/>
      <point x="352" y="-8"/>
      <point x="394" y="-1"/>
      <point x="420" y="8" type="curve"/>
      <point x="420" y="93" type="line"/>
      <point x="388" y="87"/>
      <point x="348" y="83"/>
      <point x="319" y="83" type="curve" smooth="yes"/>
      <point x="197" y="83"/>
      <point x="149" y="130"/>
      <point x="149" y="288" type="curve" smooth="yes"/>
      <point x="149" y="449"/>
      <point x="195" y="494"/>
      <point x="321" y="494" type="curve" smooth="yes"/>
      <point x="352" y="494"/>
      <point x="388" y="491"/>
      <point x="420" y="486" type="curve"/>
      <point x="420" y="573" type="line"/>
      <point x="378" y="580"/>
      <point x="340" y="585"/>
      <point x="305" y="585" type="curve" smooth="yes"/>
      <point x="123" y="585"/>
      <point x="37" y="494"/>
      <point x="37" y="289" type="curve" smooth="yes"/>
      <point x="37" y="85"/>
      <point x="124" y="-7"/>
    </contour>
  </outline>
</glyph>
<glyph name="Eacute.sc" format="1">
  <advance width="478"/>
  <outline>
    <contour>
      <point x="63" y="0" type="line"/>
      <point x="444" y="0" type="line"/>
      <point x="444" y="89" type="line"/>
      <point x="171" y="89" type="line"/>
      <point x="171" y="248" type="line"/>
      <point x="409" y="248" type="line"/>
      <point x="409" y="334" type="line"/>
      <point x="171" y="334" type="line"/>
      <point x="171" y="489" type="line"/>
      <point x="437" y="489" type="line"/>
      <point x="437" y="577" type="line"/>
      <point x="63" y="577" type="line"/>
    </contour>
    <contour>
      <point x="286" y="616" type="line"/>
      <point x="379" y="750" type="line"/>
      <point x="269" y="750" type="line"/>
      <point x="207" y="621" type="line"/>
    </contour>
  </outline>
</glyph>
<glyph name="Edotaccent.sc" format="1">
  <advance width="478"/>
  <outline>
    <contour>
      <point x="251" y="623" type="curve" smooth="yes"/>
      <point x="292" y="623"/>
      <point x="313" y="641"/>
      <point x="313" y="683" type="curve" smooth="yes"/>
      <point x="313" y="724"/>
      <point x="292" y="741"/>
      <point x="251" y="741" type="curve" smooth="yes"/>
      <point x="209" y="741"/>
      <point x="190" y="724"/>
      <point x="190" y="683" type="curve" smooth="yes"/>
      <point x="190" y="641"/>
      <point x="209" y="623"/>
    </contour>
    <contour>
      <point x="63" y="0" type="line"/>
      <point x="444" y="0" type="line"/>
      <point x="444" y="89" type="line"/>
      <point x="171" y="89" type="line"/>
      <point x="171" y="248" type="line"/>
      <point x="409" y="248" type="line"/>
      <point x="409" y="334" type="line"/>
      <point x="171" y="334" type="line"/>
      <point x="171" y="489" type="line"/>
      <point x="437" y="489" type="line"/>
      <point x="437" y="577" type="line"/>
      <point x="63" y="577" type="line"/>
    </contour>
  </outline>
</glyph>
<glyph name="H.sc" format="1">
  <advance width="590"/>
  <outline>
    <contour>
      <point x="299" y="760" type="move" name="topUC"/>
    </contour>
    <contour>
      <point x="319" y="0" type="move" name="bottom"/>
    </contour>
    <contour>
      <point x="63" y="0" type="line"/>
      <point x="171" y="0" type="line"/>
      <point x="171" y="249" type="line"/>
      <point x="419" y="249" type="line"/>
      <point x="419" y="0" type="line"/>
      <point x="528" y="0" type="line"/>
      <point x="528" y="577" type="line"/>
      <point x="419" y="577" type="line"/>
      <point x="419" y="341" type="line"/>
      <point x="171" y="341" type="line"/>
      <point x="171" y="577" type="line"/>
      <point x="63" y="577" type="line"/>
    </contour>
  </outline>
</glyph>
<glyph name="I.sc" format="1">
  <advance width="234"/>
  <outline>
    <contour>
      <point x="126" y="0" type="move" name="ogonek"/>
    </contour>
    <contour>
      <point x="112" y="760" type="move" name="topUC"/>
    </contour>
    <contour>
      <point x="112" y="0" type="move" name="bottom"/>
    </contour>
    <contour>
      <point x="63" y="0" type="line"/>
      <point x="171" y="0" type="line"/>
      <point x="171" y="577" type="line"/>
      <point x="63" y="577" type="line"/>
    </contour>
  </outline>
</glyph>
<glyph name="Idotaccent.sc" format="1">
  <advance width="234"/>
  <outline>
    <contour>
      <point x="63" y="0" type="line"/>
      <point x="171" y="0" type="line"/>
      <point x="171" y="577" type="line"/>
      <point x="63" y="577" type="line"/>
    </contour>
    <contour>
      <point x="118" y="623" type="curve" smooth="yes"/>
      <point x="160" y="623"/>
      <point x="180" y="641"/>
      <point x="180" y="683" type="curve" smooth="yes"/>
      <point x="180" y="724"/>
      <point x="160" y="741"/>
      <point x="118" y="741" type="curve" smooth="yes"/>
      <point x="77" y="741"/>
      <point x="57" y="724"/>
      <point x="57" y="683" type="curve" smooth="yes"/>
      <point x="57" y="641"/>
      <point x="77" y="623"/>
    </contour>
  </outline>
</glyph>
<glyph name="Igrave.sc" format="1">
  <advance width="234"/>
  <outline>
    <contour>
      <point x="63" y="0" type="line"/>
      <point x="172" y="0" type="line"/>
      <point x="172" y="577" type="line"/>
      <point x="63" y="577" type="line"/>
    </contour>
    <contour>
      <point x="155" y="624" type="line"/>
      <point x="93" y="750" type="line"/>
      <point x="-17" y="750" type="line"/>
      <point x="77" y="616" type="line"/>
    </contour>
  </outline>
</glyph>
<glyph name="Iogonek.sc" format="1">
  <advance width="234"/>
  <outline>
    <contour>
      <point x="63" y="0" type="line"/>
      <point x="82" y="0" type="line"/>
      <point x="33" y="-32"/>
      <point x="11" y="-60"/>
      <point x="11" y="-97" type="curve" smooth="yes"/>
      <point x="11" y="-146"/>
      <point x="45" y="-172"/>
      <point x="109" y="-172" type="curve" smooth="yes"/>
      <point x="131" y="-172"/>
      <point x="150" y="-168"/>
      <point x="172" y="-162" type="curve"/>
      <point x="172" y="-99" type="line"/>
      <point x="157" y="-104"/>
      <point x="137" y="-108"/>
      <point x="119" y="-108" type="curve" smooth="yes"/>
      <point x="96" y="-108"/>
      <point x="83" y="-102"/>
      <point x="83" y="-86" type="curve" smooth="yes"/>
      <point x="83" y="-64"/>
      <point x="109" y="-31"/>
      <point x="172" y="-8" type="curve"/>
      <point x="172" y="577" type="line"/>
      <point x="63" y="577" type="line"/>
    </contour>
  </outline>
</glyph>
<glyph name="J.sc" format="1">
  <advance width="234"/>
  <outline>
    <contour>
      <point x="111" y="760" type="move" name="topUC"/>
    </contour>
    <contour>
      <point x="65" y="-156" type="line"/>
      <point x="144" y="-46"/>
      <point x="174" y="36"/>
      <point x="174" y="141" type="curve" smooth="yes"/>
      <point x="174" y="577" type="line"/>
      <point x="65" y="577" type="line"/>
      <point x="65" y="150" type="line" smooth="yes"/>
      <point x="65" y="42"/>
      <point x="50" y="-18"/>
      <point x="-5" y="-125" type="curve"/>
    </contour>
  </outline>
</glyph>
<glyph name="K.sc" format="1">
  <advance width="537"/>
  <outline>
    <contour>
      <point x="277" y="0" type="move" name="bottom"/>
    </contour>
    <contour>
      <point x="63" y="0" type="line"/>
      <point x="171" y="0" type="line"/>
      <point x="171" y="249" type="line"/>
      <point x="242" y="249" type="line"/>
      <point x="414" y="0" type="line"/>
      <point x="535" y="0" type="line"/>
      <point x="352" y="272" type="line"/>
      <point x="306" y="292" type="line"/>
      <point x="306" y="297" type="line"/>
      <point x="351" y="318" type="line"/>
      <point x="518" y="577" type="line"/>
      <point x="396" y="577" type="line"/>
      <point x="242" y="340" type="line"/>
      <point x="171" y="340" type="line"/>
      <point x="171" y="577" type="line"/>
      <point x="63" y="577" type="line"/>
    </contour>
  </outline>
</glyph>
<glyph name="OE.sc" format="1">
  <advance width="773"/>
  <outline>
    <contour>
      <point x="298" y="-6" type="curve" smooth="yes"/>
      <point x="326" y="-6"/>
      <point x="359" y="-4"/>
      <point x="383" y="0" type="curve"/>
      <point x="737" y="0" type="line"/>
      <point x="737" y="90" type="line"/>
      <point x="490" y="90" type="line"/>
      <point x="490" y="248" type="line"/>
      <point x="711" y="248" type="line"/>
      <point x="711" y="334" type="line"/>
      <point x="490" y="334" type="line"/>
      <point x="490" y="489" type="line"/>
      <point x="729" y="489" type="line"/>
      <point x="729" y="577" type="line"/>
      <point x="383" y="577" type="line"/>
      <point x="359" y="580"/>
      <point x="327" y="583"/>
      <point x="298" y="583" type="curve" smooth="yes"/>
      <point x="129" y="583"/>
      <point x="36" y="484"/>
      <point x="36" y="289" type="curve" smooth="yes"/>
      <point x="36" y="93"/>
      <point x="129" y="-6"/>
    </contour>
    <contour>
      <point x="310" y="86" type="curve" smooth="yes"/>
      <point x="188" y="86"/>
      <point x="145" y="140"/>
      <point x="145" y="288" type="curve" smooth="yes"/>
      <point x="145" y="435"/>
      <point x="188" y="491"/>
      <point x="309" y="491" type="curve" smooth="yes"/>
      <point x="331" y="491"/>
      <point x="357" y="490"/>
      <point x="381" y="486" type="curve"/>
      <point x="381" y="91" type="line"/>
      <point x="359" y="87"/>
      <point x="331" y="86"/>
    </contour>
  </outline>
</glyph>
<glyph name="Odotbelow.sc" format="1">
  <advance width="579"/>
  <outline>
    <contour>
      <point x="290" y="-8" type="curve" smooth="yes"/>
      <point x="460" y="-8"/>
      <point x="543" y="89"/>
      <point x="543" y="288" type="curve" smooth="yes"/>
      <point x="543" y="489"/>
      <point x="460" y="585"/>
      <point x="290" y="585" type="curve" smooth="yes"/>
      <point x="120" y="585"/>
      <point x="37" y="487"/>
      <point x="37" y="288" type="curve" smooth="yes"/>
      <point x="37" y="90"/>
      <point x="120" y="-8"/>
    </contour>
    <contour>
      <point x="290" y="83" type="curve" smooth="yes"/>
      <point x="188" y="83"/>
      <point x="148" y="139"/>
      <point x="148" y="288" type="curve" smooth="yes"/>
      <point x="148" y="439"/>
      <point x="188" y="495"/>
      <point x="290" y="495" type="curve" smooth="yes"/>
      <point x="391" y="495"/>
      <point x="432" y="438"/>
      <point x="432" y="288" type="curve" smooth="yes"/>
      <point x="432" y="139"/>
      <point x="391" y="83"/>
    </contour>
    <contour>
      <point x="292" y="-155" type="curve" smooth="yes"/>
      <point x="328" y="-155"/>
      <point x="345" y="-142"/>
      <point x="345" y="-107" type="curve" smooth="yes"/>
      <point x="345" y="-72"/>
      <point x="328" y="-58"/>
      <point x="292" y="-58" type="curve" smooth="yes"/>
      <point x="256" y="-58"/>
      <point x="240" y="-72"/>
      <point x="240" y="-107" type="curve" smooth="yes"/>
      <point x="240" y="-141"/>
      <point x="256" y="-155"/>
    </contour>
  </outline>
</glyph>
<glyph name="Otilde.sc" format="1">
  <advance width="579"/>
  <outline>
    <contour>
      <point x="290" y="-8" type="curve" smooth="yes"/>
      <point x="460" y="-8"/>
      <point x="543" y="89"/>
      <point x="543" y="288" type="curve" smooth="yes"/>
      <point x="543" y="489"/>
      <point x="460" y="585"/>
      <point x="290" y="585" type="curve" smooth="yes"/>
      <point x="120" y="585"/>
      <point x="37" y="487"/>
      <point x="37" y="288" type="curve" smooth="yes"/>
      <point x="37" y="90"/>
      <point x="120" y="-8"/>
    </contour>
    <contour>
      <point x="290" y="83" type="curve" smooth="yes"/>
      <point x="188" y="83"/>
      <point x="148" y="139"/>
      <point x="148" y="288" type="curve" smooth="yes"/>
      <point x="148" y="439"/>
      <point x="188" y="495"/>
      <point x="290" y="495" type="curve" smooth="yes"/>
      <point x="391" y="495"/>
      <point x="432" y="438"/>
      <point x="432" y="288" type="curve" smooth="yes"/>
      <point x="432" y="139"/>
      <point x="391" y="83"/>
    </contour>
    <contour>
      <point x="160" y="638" type="line"/>
      <point x="181" y="659"/>
      <point x="202" y="668"/>
      <point x="224" y="668" type="curve" smooth="yes"/>
      <point x="267" y="668"/>
      <point x="303" y="637"/>
      <point x="349" y="637" type="curve" smooth="yes"/>
      <point x="386" y="637"/>
      <point x="427" y="665"/>
      <point x="454" y="719" type="curve"/>
      <point x="431" y="736" type="line"/>
      <point x="412" y="714"/>
      <point x="393" y="706"/>
      <point x="371" y="706" type="curve" smooth="yes"/>
      <point x="328" y="706"/>
      <point x="292" y="736"/>
      <point x="246" y="736" type="curve" smooth="yes"/>
      <point x="209" y="736"/>
      <point x="168" y="707"/>
      <point x="140" y="656" type="curve"/>
    </contour>
  </outline>
</glyph>
<glyph name="Q.sc" format="1">
  <advance width="578"/>
  <outline>
    <contour>
      <point x="496" y="-102" type="curve"/>
      <point x="552" y="-16" type="line"/>
      <point x="453" y="-11"/>
      <point x="393" y="-3"/>
      <point x="333" y="16" type="curve"/>
      <point x="333" y="24" type="line"/>
      <point x="473" y="47"/>
      <point x="541" y="134"/>
      <point x="541" y="288" type="curve" smooth="yes"/>
      <point x="541" y="488"/>
      <point x="459" y="585"/>
      <point x="289" y="585" type="curve" smooth="yes"/>
      <point x="118" y="585"/>
      <point x="36" y="488"/>
      <point x="36" y="288" type="curve" smooth="yes"/>
      <point x="36" y="54"/>
      <point x="153" y="-29"/>
    </contour>
    <contour>
      <point x="289" y="80" type="curve" smooth="yes"/>
      <point x="184" y="80"/>
      <point x="144" y="135"/>
      <point x="144" y="288" type="curve" smooth="yes"/>
      <point x="144" y="442"/>
      <point x="184" y="498"/>
      <point x="289" y="498" type="curve" smooth="yes"/>
      <point x="392" y="498"/>
      <point x="433" y="442"/>
      <point x="433" y="288" type="curve" smooth="yes"/>
      <point x="433" y="135"/>
      <point x="393" y="80"/>
    </contour>
  </outline>
</glyph>
<glyph name="T.sc" format="1">
  <advance width="460"/>
  <outline>
    <contour>
      <point x="234" y="760" type="move" name="topUC"/>
    </contour>
    <contour>
      <point x="235" y="0" type="move" name="bottom"/>
    </contour>
    <contour>
      <point x="176" y="0" type="line"/>
      <point x="284" y="0" type="line"/>
      <point x="284" y="484" type="line"/>
      <point x="442" y="484" type="line"/>
      <point x="442" y="577" type="line"/>
      <point x="18" y="577" type="line"/>
      <point x="18" y="484" type="line"/>
      <point x="176" y="484" type="line"/>
    </contour>
  </outline>
</glyph>
<glyph name="Udotbelow.sc" format="1">
  <advance width="587"/>
  <outline>
    <contour>
      <point x="294" y="-8" type="curve" smooth="yes"/>
      <point x="466" y="-8"/>
      <point x="530" y="66"/>
      <point x="530" y="224" type="curve" smooth="yes"/>
      <point x="530" y="577" type="line"/>
      <point x="421" y="577" type="line"/>
      <point x="421" y="229" type="line" smooth="yes"/>
      <point x="421" y="125"/>
      <point x="386" y="85"/>
      <point x="294" y="85" type="curve" smooth="yes"/>
      <point x="204" y="85"/>
      <point x="166" y="126"/>
      <point x="166" y="229" type="curve" smooth="yes"/>
      <point x="166" y="577" type="line"/>
      <point x="58" y="577" type="line"/>
      <point x="58" y="224" type="line" smooth="yes"/>
      <point x="58" y="67"/>
      <point x="122" y="-8"/>
    </contour>
    <contour>
      <point x="294" y="-155" type="curve" smooth="yes"/>
      <point x="330" y="-155"/>
      <point x="347" y="-142"/>
      <point x="347" y="-107" type="curve" smooth="yes"/>
      <point x="347" y="-72"/>
      <point x="330" y="-58"/>
      <point x="294" y="-58" type="curve" smooth="yes"/>
      <point x="258" y="-58"/>
      <point x="242" y="-72"/>
      <point x="242" y="-107" type="curve" smooth="yes"/>
      <point x="242" y="-141"/>
      <point x="258" y="-155"/>
    </contour>
  </outline>
</glyph>
<glyph name="Ugrave.sc" format="1">
  <advance width="587"/>
  <outline>
    <contour>
      <point x="294" y="-8" type="curve" smooth="yes"/>
      <point x="466" y="-8"/>
      <point x="530" y="66"/>
      <point x="530" y="224" type="curve" smooth="yes"/>
      <point x="530" y="577" type="line"/>
      <point x="421" y="577" type="line"/>
      <point x="421" y="229" type="line" smooth="yes"/>
      <point x="421" y="125"/>
      <point x="386" y="85"/>
      <point x="294" y="85" type="curve" smooth="yes"/>
      <point x="204" y="85"/>
      <point x="166" y="126"/>
      <point x="166" y="229" type="curve" smooth="yes"/>
      <point x="166" y="577" type="line"/>
      <point x="58" y="577" type="line"/>
      <point x="58" y="224" type="line" smooth="yes"/>
      <point x="58" y="67"/>
      <point x="122" y="-8"/>
    </contour>
    <contour>
      <point x="327" y="624" type="line"/>
      <point x="265" y="750" type="line"/>
      <point x="155" y="750" type="line"/>
      <point x="248" y="616" type="line"/>
    </contour>
  </outline>
</glyph>
<glyph name="Utilde.sc" format="1">
  <advance width="587"/>
  <outline>
    <contour>
      <point x="294" y="-8" type="curve" smooth="yes"/>
      <point x="466" y="-8"/>
      <point x="530" y="66"/>
      <point x="530" y="224" type="curve" smooth="yes"/>
      <point x="530" y="577" type="line"/>
      <point x="421" y="577" type="line"/>
      <point x="421" y="229" type="line" smooth="yes"/>
      <point x="421" y="125"/>
      <point x="386" y="85"/>
      <point x="294" y="85" type="curve" smooth="yes"/>
      <point x="204" y="85"/>
      <point x="166" y="126"/>
      <point x="166" y="229" type="curve" smooth="yes"/>
      <point x="166" y="577" type="line"/>
      <point x="58" y="577" type="line"/>
      <point x="58" y="224" type="line" smooth="yes"/>
      <point x="58" y="67"/>
      <point x="122" y="-8"/>
    </contour>
    <contour>
      <point x="161" y="638" type="line"/>
      <point x="182" y="659"/>
      <point x="202" y="668"/>
      <point x="224" y="668" type="curve" smooth="yes"/>
      <point x="267" y="668"/>
      <point x="304" y="637"/>
      <point x="349" y="637" type="curve" smooth="yes"/>
      <point x="387" y="637"/>
      <point x="428" y="665"/>
      <point x="454" y="719" type="curve"/>
      <point x="432" y="736" type="line"/>
      <point x="412" y="714"/>
      <point x="393" y="706"/>
      <point x="372" y="706" type="curve" smooth="yes"/>
      <point x="328" y="706"/>
      <point x="293" y="736"/>
      <point x="247" y="736" type="curve" smooth="yes"/>
      <point x="210" y="736"/>
      <point x="169" y="707"/>
      <point x="140" y="656" type="curve"/>
    </contour>
  </outline>
</glyph>
<glyph name="V.sc" format="1">
  <advance width="536"/>
  <outline>
    <contour>
      <point x="195" y="0" type="line"/>
      <point x="342" y="0" type="line"/>
      <point x="529" y="577" type="line"/>
      <point x="424" y="577" type="line"/>
      <point x="301" y="213" type="line"/>
      <point x="274" y="98" type="line"/>
      <point x="263" y="98" type="line"/>
      <point x="237" y="213" type="line"/>
      <point x="113" y="577" type="line"/>
      <point x="6" y="577" type="line"/>
    </contour>
  </outline>
</glyph>
<glyph name="Wdieresis.sc" format="1">
  <advance width="812"/>
  <outline>
    <contour>
      <point x="163" y="0" type="line"/>
      <point x="294" y="0" type="line"/>
      <point x="384" y="326" type="line"/>
      <point x="404" y="425" type="line"/>
      <point x="411" y="425" type="line"/>
      <point x="430" y="326" type="line"/>
      <point x="516" y="0" type="line"/>
      <point x="646" y="0" type="line"/>
      <point x="802" y="577" type="line"/>
      <point x="682" y="577" type="line"/>
      <point x="600" y="213" type="line"/>
      <point x="581" y="130" type="line"/>
      <point x="572" y="130" type="line"/>
      <point x="553" y="213" type="line"/>
      <point x="462" y="577" type="line"/>
      <point x="355" y="577" type="line"/>
      <point x="258" y="213" type="line"/>
      <point x="239" y="130" type="line"/>
      <point x="229" y="130" type="line"/>
      <point x="212" y="213" type="line"/>
      <point x="134" y="577" type="line"/>
      <point x="13" y="577" type="line"/>
    </contour>
    <contour>
      <point x="307" y="627" type="curve" smooth="yes"/>
      <point x="349" y="627"/>
      <point x="369" y="645"/>
      <point x="369" y="686" type="curve" smooth="yes"/>
      <point x="369" y="727"/>
      <point x="349" y="745"/>
      <point x="307" y="745" type="curve" smooth="yes"/>
      <point x="265" y="745"/>
      <point x="246" y="728"/>
      <point x="246" y="686" type="curve" smooth="yes"/>
      <point x="246" y="645"/>
      <point x="265" y="627"/>
    </contour>
    <contour>
      <point x="504" y="627" type="curve" smooth="yes"/>
      <point x="545" y="627"/>
      <point x="566" y="645"/>
      <point x="566" y="686" type="curve" smooth="yes"/>
      <point x="566" y="727"/>
      <point x="545" y="745"/>
      <point x="504" y="745" type="curve" smooth="yes"/>
      <point x="462" y="745"/>
      <point x="442" y="728"/>
      <point x="442" y="686" type="curve" smooth="yes"/>
      <point x="442" y="645"/>
      <point x="462" y="627"/>
    </contour>
  </outline>
</glyph>
<glyph name="X.sc" format="1">
  <advance width="537"/>
  <outline>
    <contour>
      <point x="2" y="0" type="line"/>
      <point x="119" y="0" type="line"/>
      <point x="257" y="209" type="line"/>
      <point x="264" y="219" type="line"/>
      <point x="265" y="219" type="line"/>
      <point x="272" y="209" type="line"/>
      <point x="415" y="0" type="line"/>
      <point x="536" y="0" type="line"/>
      <point x="337" y="302" type="line"/>
      <point x="523" y="577" type="line"/>
      <point x="406" y="577" type="line"/>
      <point x="280" y="387" type="line"/>
      <point x="273" y="375" type="line"/>
      <point x="272" y="375" type="line"/>
      <point x="265" y="387" type="line"/>
      <point x="137" y="577" type="line"/>
      <point x="14" y="577" type="line"/>
      <point x="199" y="296" type="line"/>
    </contour>
  </outline>
</glyph>
<glyph name="Zacute.sc" format="1">
  <advance width="467"/>
  <outline>
    <contour>
      <point x="30" y="0" type="line"/>
      <point x="438" y="0" type="line"/>
      <point x="438" y="92" type="line"/>
      <point x="153" y="92" type="line"/>
      <point x="153" y="98" type="line"/>
      <point x="428" y="481" type="line"/>
      <point x="428" y="577" type="line"/>
      <point x="40" y="577" type="line"/>
      <point x="40" y="485" type="line"/>
      <point x="304" y="485" type="line"/>
      <point x="304" y="479" type="line"/>
      <point x="30" y="96" type="line"/>
    </contour>
    <contour>
      <point x="274" y="616" type="line"/>
      <point x="367" y="750" type="line"/>
      <point x="257" y="750" type="line"/>
      <point x="195" y="621" type="line"/>
    </contour>
  </outline>
</glyph>
<glyph name="Zdotaccent.sc" format="1">
  <advance width="467"/>
  <outline>
    <contour>
      <point x="30" y="0" type="line"/>
      <point x="438" y="0" type="line"/>
      <point x="438" y="92" type="line"/>
      <point x="153" y="92" type="line"/>
      <point x="153" y="98" type="line"/>
      <point x="428" y="481" type="line"/>
      <point x="428" y="577" type="line"/>
      <point x="40" y="577" type="line"/>
      <point x="40" y="485" type="line"/>
      <point x="304" y="485" type="line"/>
      <point x="304" y="479" type="line"/>
      <point x="30" y="96" type="line"/>
    </contour>
    <contour>
      <point x="239" y="623" type="curve" smooth="yes"/>
      <point x="280" y="623"/>
      <point x="301" y="641"/>
      <point x="301" y="683" type="curve" smooth="yes"/>
      <point x="301" y="724"/>
      <point x="280" y="741"/>
      <point x="239" y="741" type="curve" smooth="yes"/>
      <point x="197" y="741"/>
      <point x="177" y="724"/>
      <point x="177" y="683" type="curve" smooth="yes"/>
      <point x="177" y="641"/>
      <point x="197" y="623"/>
    </contour>
  </outline>
</glyph>
<glyph name="Zdotbelow.sc" format="1">
  <advance width="467"/>
  <outline>
    <contour>
      <point x="30" y="0" type="line"/>
      <point x="438" y="0" type="line"/>
      <point x="438" y="92" type="line"/>
      <point x="153" y="92" type="line"/>
      <point x="153" y="98" type="line"/>
      <point x="428" y="481" type="line"/>
      <point x="428" y="577" type="line"/>
      <point x="40" y="577" type="line"/>
      <point x="40" y="485" type="line"/>
      <point x="304" y="485" type="line"/>
      <point x="304" y="479" type="line"/>
      <point x="30" y="96" type="line"/>
    </contour>
    <contour>
      <point x="234" y="-155" type="curve" smooth="yes"/>
      <point x="269" y="-155"/>
      <point x="287" y="-142"/>
      <point x="287" y="-107" type="curve" smooth="yes"/>
      <point x="287" y="-72"/>
      <point x="269" y="-58"/>
      <point x="234" y="-58" type="curve" smooth="yes"/>
      <point x="198" y="-58"/>
      <point x="182" y="-72"/>
      <point x="182" y="-107" type="curve" smooth="yes"/>
      <point x="182" y="-141"/>
      <point x="198" y="-155"/>
    </contour>
  </outline>
</glyph>
<glyph name=".notdef" format="1">
  <advance width="645"/>
  <outline>
    <contour>
      <point x="78" y="-220" type="line"/>
      <point x="567" y="-220" type="line"/>
      <point x="567" y="1030" type="line"/>
      <point x="78" y="1030" type="line"/>
    </contour>
    <contour>
      <point x="173" y="-130" type="line"/>
      <point x="173" y="941" type="line"/>
      <point x="471" y="941" type="line"/>
      <point x="471" y="-130" type="line"/>
    </contour>
  </outline>
</glyph>
<glyph name="braceleft.sc" format="1">
  <advance width="312"/>
  <outline>
    <contour>
      <point x="29" y="239" type="line"/>
      <point x="71" y="239"/>
      <point x="90" y="214"/>
      <point x="90" y="165" type="curve" smooth="yes"/>
      <point x="90" y="-29" type="line" smooth="yes"/>
      <point x="90" y="-98"/>
      <point x="115" y="-122"/>
      <point x="186" y="-122" type="curve" smooth="yes"/>
      <point x="209" y="-122"/>
      <point x="270" y="-120"/>
      <point x="279" y="-118" type="curve"/>
      <point x="279" y="-52" type="line"/>
      <point x="221" y="-52" type="line" smooth="yes"/>
      <point x="188" y="-52"/>
      <point x="176" y="-41"/>
      <point x="176" y="-15" type="curve" smooth="yes"/>
      <point x="176" y="186" type="line" smooth="yes"/>
      <point x="176" y="233"/>
      <point x="151" y="270"/>
      <point x="115" y="278" type="curve"/>
      <point x="151" y="287"/>
      <point x="176" y="324"/>
      <point x="176" y="371" type="curve" smooth="yes"/>
      <point x="176" y="570" type="line" smooth="yes"/>
      <point x="176" y="597"/>
      <point x="188" y="607"/>
      <point x="221" y="607" type="curve" smooth="yes"/>
      <point x="279" y="607" type="line"/>
      <point x="279" y="673" type="line"/>
      <point x="270" y="675"/>
      <point x="209" y="677"/>
      <point x="186" y="677" type="curve" smooth="yes"/>
      <point x="115" y="677"/>
      <point x="90" y="653"/>
      <point x="90" y="585" type="curve" smooth="yes"/>
      <point x="90" y="392" type="line" smooth="yes"/>
      <point x="90" y="344"/>
      <point x="71" y="318"/>
      <point x="29" y="318" type="curve"/>
    </contour>
  </outline>
</glyph>
<glyph name="cent.tab" format="1">
  <advance width="540"/>
  <outline>
    <contour>
      <point x="288" y="-120" type="line"/>
      <point x="369" y="-120" type="line"/>
      <point x="369" y="-9" type="line"/>
      <point x="397" y="-7"/>
      <point x="430" y="-2"/>
      <point x="455" y="5" type="curve"/>
      <point x="455" y="95" type="line"/>
      <point x="416" y="87"/>
      <point x="384" y="83"/>
      <point x="355" y="83" type="curve" smooth="yes"/>
      <point x="243" y="83"/>
      <point x="194" y="141"/>
      <point x="194" y="271" type="curve" smooth="yes"/>
      <point x="194" y="401"/>
      <point x="242" y="457"/>
      <point x="356" y="457" type="curve" smooth="yes"/>
      <point x="386" y="457"/>
      <point x="418" y="453"/>
      <point x="455" y="446" type="curve"/>
      <point x="455" y="536" type="line"/>
      <point x="421" y="543"/>
      <point x="394" y="547"/>
      <point x="369" y="549" type="curve"/>
      <point x="369" y="661" type="line"/>
      <point x="288" y="661" type="line"/>
      <point x="288" y="546" type="line"/>
      <point x="145" y="529"/>
      <point x="73" y="439"/>
      <point x="73" y="270" type="curve" smooth="yes"/>
      <point x="73" y="99"/>
      <point x="144" y="10"/>
      <point x="288" y="-6" type="curve"/>
    </contour>
  </outline>
</glyph>
<glyph name="degree.tab" format="1">
  <advance width="540"/>
  <outline>
    <contour>
      <point x="271" y="371" type="curve" smooth="yes"/>
      <point x="384" y="371"/>
      <point x="461" y="450"/>
      <point x="461" y="560" type="curve" smooth="yes"/>
      <point x="461" y="670"/>
      <point x="384" y="750"/>
      <point x="271" y="750" type="curve" smooth="yes"/>
      <point x="157" y="750"/>
      <point x="80" y="670"/>
      <point x="80" y="560" type="curve" smooth="yes"/>
      <point x="80" y="450"/>
      <point x="157" y="371"/>
    </contour>
    <contour>
      <point x="271" y="437" type="curve" smooth="yes"/>
      <point x="192" y="437"/>
      <point x="150" y="486"/>
      <point x="150" y="560" type="curve" smooth="yes"/>
      <point x="150" y="634"/>
      <point x="192" y="685"/>
      <point x="271" y="685" type="curve" smooth="yes"/>
      <point x="350" y="685"/>
      <point x="390" y="634"/>
      <point x="390" y="560" type="curve" smooth="yes"/>
      <point x="390" y="486"/>
      <point x="350" y="437"/>
    </contour>
  </outline>
</glyph>
<glyph name="dieresis.cap" format="1">
  <advance width="436"/>
  <outline>
    <contour>
      <point x="218" y="783" type="move" name="_topUC"/>
    </contour>
    <contour>
      <point x="110" y="806" type="curve" smooth="yes"/>
      <point x="153" y="806"/>
      <point x="176" y="825"/>
      <point x="176" y="871" type="curve" smooth="yes"/>
      <point x="176" y="916"/>
      <point x="153" y="935"/>
      <point x="110" y="935" type="curve" smooth="yes"/>
      <point x="65" y="935"/>
      <point x="44" y="916"/>
      <point x="44" y="871" type="curve" smooth="yes"/>
      <point x="44" y="826"/>
      <point x="65" y="806"/>
    </contour>
    <contour>
      <point x="325" y="806" type="curve" smooth="yes"/>
      <point x="368" y="806"/>
      <point x="392" y="825"/>
      <point x="392" y="871" type="curve" smooth="yes"/>
      <point x="392" y="916"/>
      <point x="368" y="935"/>
      <point x="325" y="935" type="curve" smooth="yes"/>
      <point x="281" y="935"/>
      <point x="259" y="916"/>
      <point x="259" y="871" type="curve" smooth="yes"/>
      <point x="259" y="826"/>
      <point x="281" y="806"/>
    </contour>
  </outline>
</glyph>
<glyph name="divide.tab" format="1">
  <advance width="540"/>
  <outline>
    <contour>
      <point x="273" y="140" type="curve" smooth="yes"/>
      <point x="309" y="140"/>
      <point x="334" y="160"/>
      <point x="334" y="199" type="curve" smooth="yes"/>
      <point x="334" y="236"/>
      <point x="309" y="256"/>
      <point x="273" y="256" type="curve" smooth="yes"/>
      <point x="237" y="256"/>
      <point x="213" y="237"/>
      <point x="213" y="199" type="curve" smooth="yes"/>
      <point x="213" y="160"/>
      <point x="237" y="140"/>
    </contour>
    <contour>
      <point x="44" y="328" type="line"/>
      <point x="497" y="328" type="line"/>
      <point x="497" y="412" type="line"/>
      <point x="44" y="412" type="line"/>
    </contour>
    <contour>
      <point x="273" y="481" type="curve" smooth="yes"/>
      <point x="309" y="481"/>
      <point x="334" y="500"/>
      <point x="334" y="537" type="curve" smooth="yes"/>
      <point x="334" y="576"/>
      <point x="309" y="596"/>
      <point x="273" y="596" type="curve" smooth="yes"/>
      <point x="237" y="596"/>
      <point x="213" y="576"/>
      <point x="213" y="537" type="curve" smooth="yes"/>
      <point x="213" y="500"/>
      <point x="237" y="481"/>
    </contour>
  </outline>
</glyph>
<glyph name="eight.tf" format="1">
  <advance width="540"/>
  <outline>
    <contour>
      <point x="270" y="-3" type="curve" smooth="yes"/>
      <point x="406" y="-3"/>
      <point x="488" y="73"/>
      <point x="488" y="202" type="curve" smooth="yes"/>
      <point x="488" y="298"/>
      <point x="446" y="351"/>
      <point x="381" y="384" type="curve"/>
      <point x="443" y="419"/>
      <point x="471" y="469"/>
      <point x="471" y="555" type="curve" smooth="yes"/>
      <point x="471" y="677"/>
      <point x="394" y="749"/>
      <point x="271" y="749" type="curve" smooth="yes"/>
      <point x="147" y="749"/>
      <point x="70" y="675"/>
      <point x="70" y="557" type="curve" smooth="yes"/>
      <point x="70" y="467"/>
      <point x="103" y="413"/>
      <point x="161" y="378" type="curve"/>
      <point x="84" y="337"/>
      <point x="52" y="270"/>
      <point x="52" y="186" type="curve" smooth="yes"/>
      <point x="52" y="66"/>
      <point x="135" y="-3"/>
    </contour>
    <contour>
      <point x="270" y="74" type="curve" smooth="yes"/>
      <point x="201" y="74"/>
      <point x="157" y="118"/>
      <point x="157" y="202" type="curve" smooth="yes"/>
      <point x="157" y="263"/>
      <point x="185" y="307"/>
      <point x="245" y="339" type="curve"/>
      <point x="322" y="314"/>
      <point x="383" y="284"/>
      <point x="383" y="194" type="curve" smooth="yes"/>
      <point x="383" y="114"/>
      <point x="339" y="74"/>
    </contour>
    <contour>
      <point x="271" y="669" type="curve" smooth="yes"/>
      <point x="334" y="669"/>
      <point x="369" y="630"/>
      <point x="369" y="554" type="curve" smooth="yes"/>
      <point x="369" y="489"/>
      <point x="346" y="446"/>
      <point x="292" y="418" type="curve"/>
      <point x="215" y="443"/>
      <point x="171" y="476"/>
      <point x="171" y="550" type="curve" smooth="yes"/>
      <point x="171" y="627"/>
      <point x="208" y="669"/>
    </contour>
  </outline>
</glyph>
<glyph name="equal.tab" format="1">
  <advance width="540"/>
  <outline>
    <contour>
      <point x="58" y="202" type="line"/>
      <point x="482" y="202" type="line"/>
      <point x="482" y="288" type="line"/>
      <point x="58" y="288" type="line"/>
    </contour>
    <contour>
      <point x="58" y="419" type="line"/>
      <point x="482" y="419" type="line"/>
      <point x="482" y="505" type="line"/>
      <point x="58" y="505" type="line"/>
    </contour>
  </outline>
</glyph>
<glyph name="five.tosf" format="1">
  <advance width="540"/>
  <outline>
    <contour>
      <point x="209" y="-170" type="curve" smooth="yes"/>
      <point x="376" y="-170"/>
      <point x="473" y="-85"/>
      <point x="473" y="61" type="curve" smooth="yes"/>
      <point x="473" y="216"/>
      <point x="392" y="279"/>
      <point x="189" y="281" type="curve"/>
      <point x="204" y="486" type="line"/>
      <point x="443" y="486" type="line"/>
      <point x="443" y="583" type="line"/>
      <point x="113" y="583" type="line"/>
      <point x="84" y="201" type="line"/>
      <point x="89" y="197" type="line"/>
      <point x="154" y="197" type="line" smooth="yes"/>
      <point x="302" y="197"/>
      <point x="354" y="161"/>
      <point x="354" y="61" type="curve" smooth="yes"/>
      <point x="354" y="-26"/>
      <point x="301" y="-73"/>
      <point x="201" y="-73" type="curve" smooth="yes"/>
      <point x="172" y="-73"/>
      <point x="140" y="-69"/>
      <point x="102" y="-61" type="curve"/>
      <point x="76" y="-61" type="line"/>
      <point x="76" y="-155" type="line"/>
      <point x="129" y="-165"/>
      <point x="171" y="-170"/>
    </contour>
  </outline>
</glyph>
<glyph name="four.numerator" format="1">
  <advance width="398"/>
  <outline>
    <contour>
      <point x="226" y="200" type="line"/>
      <point x="325" y="200" type="line"/>
      <point x="325" y="322" type="line"/>
      <point x="379" y="322" type="line"/>
      <point x="379" y="396" type="line"/>
      <point x="325" y="396" type="line"/>
      <point x="325" y="568" type="line"/>
      <point x="262" y="568" type="line"/>
      <point x="235" y="396" type="line"/>
      <point x="109" y="396" type="line"/>
      <point x="280" y="728" type="line"/>
      <point x="275" y="740" type="line"/>
      <point x="193" y="749" type="line"/>
      <point x="182" y="743" type="line"/>
      <point x="12" y="380" type="line"/>
      <point x="28" y="322" type="line"/>
      <point x="226" y="322" type="line"/>
    </contour>
  </outline>
</glyph>
<glyph name="four.osf" format="1">
  <advance width="516"/>
  <outline>
    <contour>
      <point x="30" y="15" type="line"/>
      <point x="497" y="15" type="line"/>
      <point x="497" y="101" type="line"/>
      <point x="130" y="101" type="line"/>
      <point x="130" y="106" type="line"/>
      <point x="368" y="578" type="line"/>
      <point x="364" y="583" type="line"/>
      <point x="258" y="593" type="line"/>
      <point x="252" y="593" type="line"/>
      <point x="12" y="86" type="line"/>
      <point x="12" y="82" type="line"/>
    </contour>
    <contour>
      <point x="310" y="-165" type="line"/>
      <point x="424" y="-165" type="line"/>
      <point x="424" y="335" type="line"/>
      <point x="340" y="335" type="line"/>
      <point x="310" y="86" type="line"/>
    </contour>
  </outline>
</glyph>
<glyph name="greater.tab" format="1">
  <advance width="540"/>
  <outline>
    <contour>
      <point x="61" y="139" type="line"/>
      <point x="502" y="325" type="line"/>
      <point x="502" y="406" type="line"/>
      <point x="59" y="591" type="line"/>
      <point x="59" y="499" type="line"/>
      <point x="379" y="365" type="line"/>
      <point x="61" y="232" type="line"/>
    </contour>
  </outline>
</glyph>
<glyph name="less.tab" format="1">
  <advance width="540"/>
  <outline>
    <contour>
      <point x="478" y="139" type="line"/>
      <point x="478" y="232" type="line"/>
      <point x="161" y="365" type="line"/>
      <point x="480" y="499" type="line"/>
      <point x="480" y="591" type="line"/>
      <point x="40" y="406" type="line"/>
      <point x="40" y="325" type="line"/>
    </contour>
  </outline>
</glyph>
<glyph name="one.osf" format="1">
  <advance width="349"/>
  <outline>
    <contour>
      <point x="170" y="0" type="line"/>
      <point x="285" y="0" type="line"/>
      <point x="285" y="575" type="line"/>
      <point x="202" y="575" type="line"/>
      <point x="16" y="468" type="line"/>
      <point x="14" y="453" type="line"/>
      <point x="36" y="399" type="line"/>
      <point x="51" y="399" type="line"/>
      <point x="167" y="446" type="line"/>
      <point x="170" y="446" type="line"/>
    </contour>
  </outline>
</glyph>
<glyph name="one.tosf" format="1">
  <advance width="540"/>
  <outline>
    <contour>
      <point x="283" y="0" type="line"/>
      <point x="403" y="0" type="line"/>
      <point x="403" y="575" type="line"/>
      <point x="318" y="575" type="line"/>
      <point x="89" y="468" type="line"/>
      <point x="87" y="453" type="line"/>
      <point x="114" y="399" type="line"/>
      <point x="129" y="399" type="line"/>
      <point x="279" y="446" type="line"/>
      <point x="283" y="446" type="line"/>
    </contour>
  </outline>
</glyph>
<glyph name="parenright.sc" format="1">
  <advance width="283"/>
  <outline>
    <contour>
      <point x="112" y="-125" type="line"/>
      <point x="200" y="-9"/>
      <point x="246" y="133"/>
      <point x="246" y="276" type="curve" smooth="yes"/>
      <point x="246" y="420"/>
      <point x="200" y="561"/>
      <point x="112" y="677" type="curve"/>
      <point x="20" y="677" type="line"/>
      <point x="20" y="674" type="line"/>
      <point x="107" y="559"/>
      <point x="159" y="419"/>
      <point x="159" y="276" type="curve" smooth="yes"/>
      <point x="159" y="133"/>
      <point x="107" y="-7"/>
      <point x="20" y="-122" type="curve"/>
      <point x="20" y="-125" type="line"/>
    </contour>
  </outline>
</glyph>
<glyph name="percent.tab" format="1">
  <advance width="540"/>
  <outline>
    <contour>
      <point x="78" y="290" type="curve" smooth="yes"/>
      <point x="162" y="290"/>
      <point x="205" y="367"/>
      <point x="205" y="515" type="curve" smooth="yes"/>
      <point x="205" y="662"/>
      <point x="162" y="740"/>
      <point x="78" y="740" type="curve" smooth="yes"/>
      <point x="-5" y="740"/>
      <point x="-50" y="662"/>
      <point x="-50" y="515" type="curve" smooth="yes"/>
      <point x="-50" y="367"/>
      <point x="-5" y="290"/>
    </contour>
    <contour>
      <point x="78" y="357" type="curve" smooth="yes"/>
      <point x="40" y="357"/>
      <point x="23" y="406"/>
      <point x="23" y="515" type="curve" smooth="yes"/>
      <point x="23" y="622"/>
      <point x="41" y="673"/>
      <point x="78" y="673" type="curve" smooth="yes"/>
      <point x="116" y="673"/>
      <point x="133" y="623"/>
      <point x="133" y="515" type="curve" smooth="yes"/>
      <point x="133" y="406"/>
      <point x="117" y="357"/>
    </contour>
    <contour>
      <point x="462" y="-3" type="curve" smooth="yes"/>
      <point x="546" y="-3"/>
      <point x="590" y="75"/>
      <point x="590" y="223" type="curve" smooth="yes"/>
      <point x="590" y="370"/>
      <point x="546" y="448"/>
      <point x="462" y="448" type="curve" smooth="yes"/>
      <point x="380" y="448"/>
      <point x="335" y="370"/>
      <point x="335" y="223" type="curve" smooth="yes"/>
      <point x="335" y="75"/>
      <point x="379" y="-3"/>
    </contour>
    <contour>
      <point x="462" y="65" type="curve" smooth="yes"/>
      <point x="424" y="65"/>
      <point x="408" y="114"/>
      <point x="408" y="223" type="curve" smooth="yes"/>
      <point x="408" y="330"/>
      <point x="425" y="381"/>
      <point x="462" y="381" type="curve" smooth="yes"/>
      <point x="500" y="381"/>
      <point x="517" y="331"/>
      <point x="517" y="223" type="curve" smooth="yes"/>
      <point x="517" y="114"/>
      <point x="501" y="65"/>
    </contour>
    <contour>
      <point x="129" y="0" type="line"/>
      <point x="210" y="0" type="line"/>
      <point x="409" y="740" type="line"/>
      <point x="329" y="740" type="line"/>
    </contour>
  </outline>
</glyph>
<glyph name="quotedbl.tab" format="1">
  <advance width="270"/>
  <outline>
    <contour>
      <point x="-12" y="808" type="line"/>
      <point x="-12" y="480" type="line"/>
      <point x="51" y="480" type="line"/>
      <point x="88" y="804" type="line"/>
      <point x="88" y="808" type="line"/>
    </contour>
    <contour>
      <point x="200" y="808" type="line"/>
      <point x="200" y="480" type="line"/>
      <point x="262" y="480" type="line"/>
      <point x="299" y="804" type="line"/>
      <point x="299" y="808" type="line"/>
    </contour>
  </outline>
</glyph>
<glyph name="quotesingle.tab" format="1">
  <advance width="270"/>
  <outline>
    <contour>
      <point x="95" y="808" type="line"/>
      <point x="95" y="480" type="line"/>
      <point x="157" y="480" type="line"/>
      <point x="192" y="804" type="line"/>
      <point x="192" y="808" type="line"/>
    </contour>
  </outline>
</glyph>
<glyph name="ring.cap" format="1">
  <advance width="283"/>
  <outline>
    <contour>
      <point x="143" y="783" type="move" name="_topUC"/>
    </contour>
    <contour>
      <point x="141" y="776" type="curve" smooth="yes"/>
      <point x="205" y="776"/>
      <point x="247" y="823"/>
      <point x="247" y="884" type="curve" smooth="yes"/>
      <point x="247" y="945"/>
      <point x="206" y="992"/>
      <point x="141" y="992" type="curve" smooth="yes"/>
      <point x="76" y="992"/>
      <point x="35" y="945"/>
      <point x="35" y="884" type="curve" smooth="yes"/>
      <point x="35" y="823"/>
      <point x="77" y="776"/>
    </contour>
    <contour>
      <point x="141" y="824" type="curve" smooth="yes"/>
      <point x="102" y="824"/>
      <point x="86" y="846"/>
      <point x="86" y="884" type="curve" smooth="yes"/>
      <point x="86" y="922"/>
      <point x="102" y="944"/>
      <point x="141" y="944" type="curve" smooth="yes"/>
      <point x="179" y="944"/>
      <point x="196" y="922"/>
      <point x="196" y="884" type="curve" smooth="yes"/>
      <point x="196" y="846"/>
      <point x="179" y="824"/>
    </contour>
  </outline>
</glyph>
<glyph name="slash.tab" format="1">
  <advance width="540"/>
  <outline>
    <contour>
      <point x="94" y="-121" type="line"/>
      <point x="207" y="-121" type="line"/>
      <point x="447" y="740" type="line"/>
      <point x="334" y="740" type="line"/>
    </contour>
  </outline>
</glyph>
<glyph name="three.tf" format="1">
  <advance width="540"/>
  <outline>
    <contour>
      <point x="206" y="-8" type="curve" smooth="yes"/>
      <point x="372" y="-8"/>
      <point x="470" y="68"/>
      <point x="470" y="195" type="curve" smooth="yes"/>
      <point x="470" y="296"/>
      <point x="415" y="362"/>
      <point x="311" y="382" type="curve"/>
      <point x="311" y="385" type="line"/>
      <point x="399" y="406"/>
      <point x="447" y="470"/>
      <point x="447" y="566" type="curve" smooth="yes"/>
      <point x="447" y="688"/>
      <point x="367" y="751"/>
      <point x="206" y="751" type="curve" smooth="yes"/>
      <point x="160" y="751"/>
      <point x="115" y="746"/>
      <point x="70" y="735" type="curve"/>
      <point x="75" y="648" type="line"/>
      <point x="83" y="648" type="line"/>
      <point x="130" y="657"/>
      <point x="166" y="661"/>
      <point x="197" y="661" type="curve" smooth="yes"/>
      <point x="287" y="661"/>
      <point x="329" y="624"/>
      <point x="329" y="544" type="curve" smooth="yes"/>
      <point x="329" y="460"/>
      <point x="278" y="422"/>
      <point x="167" y="422" type="curve" smooth="yes"/>
      <point x="141" y="422" type="line"/>
      <point x="141" y="339" type="line"/>
      <point x="167" y="339" type="line" smooth="yes"/>
      <point x="296" y="339"/>
      <point x="352" y="295"/>
      <point x="352" y="203" type="curve" smooth="yes"/>
      <point x="352" y="120"/>
      <point x="298" y="79"/>
      <point x="190" y="79" type="curve" smooth="yes"/>
      <point x="149" y="79"/>
      <point x="109" y="84"/>
      <point x="80" y="93" type="curve"/>
      <point x="73" y="93" type="line"/>
      <point x="73" y="5" type="line"/>
      <point x="120" y="-5"/>
      <point x="163" y="-8"/>
    </contour>
  </outline>
</glyph>
<glyph name="zero.tf" format="1">
  <advance width="540"/>
  <outline>
    <contour>
      <point x="269" y="-10" type="curve" smooth="yes"/>
      <point x="421" y="-10"/>
      <point x="501" y="121"/>
      <point x="501" y="369" type="curve" smooth="yes"/>
      <point x="501" y="618"/>
      <point x="421" y="750"/>
      <point x="269" y="750" type="curve" smooth="yes"/>
      <point x="119" y="750"/>
      <point x="39" y="618"/>
      <point x="39" y="369" type="curve" smooth="yes"/>
      <point x="39" y="121"/>
      <point x="119" y="-10"/>
    </contour>
    <contour>
      <point x="269" y="87" type="curve" smooth="yes"/>
      <point x="188" y="87"/>
      <point x="152" y="174"/>
      <point x="152" y="369" type="curve" smooth="yes"/>
      <point x="152" y="564"/>
      <point x="189" y="654"/>
      <point x="269" y="654" type="curve" smooth="yes"/>
      <point x="351" y="654"/>
      <point x="387" y="565"/>
      <point x="387" y="369" type="curve" smooth="yes"/>
      <point x="387" y="174"/>
      <point x="352" y="87"/>
    </contour>
  </outline>
</glyph>
